<svg xmlns="http://www.w3.org/2000/svg" xmlns:xlink="http://www.w3.org/1999/xlink" width="61.9" height="56.268" viewBox="0 0 61.9 56.268">
  <defs>
    <clipPath id="clip-path">
      <rect id="Rectángulo_51991" data-name="Rectángulo 51991" width="61.9" height="56.268" fill="#1b3f5e"/>
    </clipPath>
  </defs>
  <g id="Grupo_591415" data-name="Grupo 591415" transform="translate(0 0)">
    <g id="Grupo_591414" data-name="Grupo 591414" transform="translate(0 0)" clip-path="url(#clip-path)">
      <path id="Trazado_227645" data-name="Trazado 227645" d="M28.494.761A27.044,27.044,0,0,0,8.527,20.785a25.355,25.355,0,0,0-.49,3.08,1.4,1.4,0,0,1-.107.4,27.08,27.08,0,0,0,5.016,18.684,15.715,15.715,0,0,0,2.364.89,25.765,25.765,0,0,1-2.437-30.21c.085-.138.175-.27.262-.406a3.177,3.177,0,0,1-.156.854c-.238.644-.805,1.017-1.07,1.631a5.444,5.444,0,0,0-.356,1.909c0,.611.252,1.29.188,1.913-.081.792-.444,1.338-.153,2.164,1.089.056.213-1.644,1.047-1.944a7.03,7.03,0,0,1,.659,2.66c.138,1.036,0,1.334.814,2.056.644.572.913.995,1.865.88a1.789,1.789,0,0,1,1.868.926c.687-.019,1.109-.006,1.369.7a8.369,8.369,0,0,0,1.3.477c.461.009,1.036-.784,1.561-.406.876.631-.173,3.083-.276,3.866-.152,1.148.16,2.7,1.336,3.217.6.263,1.192.318,1.528.98a8.321,8.321,0,0,0,.757,1.725c.68.849,1.783.918,2.691,1.474a2.98,2.98,0,0,1,1.2,1.432l8.024-.111a2.431,2.431,0,0,1,.1-.739c.238-.718.788-.851,1.232-1.389.576-.7.152-1.182.105-1.936a8.454,8.454,0,0,1,.679-3.873c.666-1.444.83-2.573-.618-3.455-.715-.436-.979-.21-1.792-.226a14.558,14.558,0,0,0-1.86-.241c-.367.042-.546.221-.891.215-.321-.006-.329-.2-.648-.12-.475.12-.9,1.274-1.457.737-.309-.3.135-1.44-.01-1.908-.178-.572-.624-1.468-1.27-1.649-.245-.068-.728.03-1.017-.008a5.259,5.259,0,0,1-1.011-.274A3.375,3.375,0,0,1,27.381,24c-.45.09-.811-.083-1.263.032-.405.1-.63.357-1.082.414-.4.05-.884-.155-1.285,0-.268.105-.591.564-.8.757a6.723,6.723,0,0,1-1.828,1.232c-1.036.465-1.331.1-1.509-.922l-.241-.285c.133-1.217-.612-1.12-1.477-1.2-.3-.772.541-1.578-.08-2.354-.84.158-1.182,2.713-2.128,1.87-.625-.556-.371-2.592-.1-3.255a5.99,5.99,0,0,1,2.2-2.316,1.169,1.169,0,0,1,1.4.354c.356.468.175,1.034.384,1.611.661-.331.265-1.177.119-1.647-.243-.785.189-.827.457-1.5a13.262,13.262,0,0,1,.5-1.841c.264-.482.587-1,.893-1.457.35-.523.867-.609,1.256-1.025.591-.633-.547-1.272.5-1.457.374-.066.247.208.708-.021a7.569,7.569,0,0,0,.727-.521c.891-.64.164-.578-.415-.991-.737-.525.107-.606.677-.85.419-.178.293-.3.738-.134.392.144.267.493.753.358.928-.258.054-1.039-.23-1.3-.486-.446-.666-.8-1.424-.634a1.235,1.235,0,0,0-.215-.78c-.614.237-.835-.2-1.359-.263-.882-.111-.593.519-.814,1.051-.228.548-.9.625-1.012,1.252-.117.653.24,1.045-.75,1.114a3.182,3.182,0,0,0-.227-1.206,4.334,4.334,0,0,1-.829,0c-.228-.951.8-1.285,1.5-1.548.777-.294.843-1.173,1.525-1.483.636-.289,1.376.677,2.048-.149.383-.471.116-.628-.14-.931-.068-.081-.355-.231-.439-.3-.01-.008-.014-.017-.023-.025.609-.277,1.231-.529,1.864-.76a6.545,6.545,0,0,0,.781.9c.149.155.379.227.512.405.151.2-.009.538.313.621.5.129,1.409-1.713,1.657-2.035.314-.41.517-.642.35-.925a25.779,25.779,0,0,1,6.238-.537c.2.156.408.317.62.5a2.426,2.426,0,0,0,1.441.829c.386.036,1.519-.261,1.242.667-.256.856-.977-.011-1.254-.195-.384-.253-1.375-.4-1.165.346.312,1.109,2.79.32,2.545,1.68.345.105,1.012.257,1.02.721.01.572-.781.4-.6,1.089A1.654,1.654,0,0,0,42.1,7.9c.973-.635-.184-1.918,1-2.364a1.466,1.466,0,0,1,1.3.134c.417.193.8.769,1.266.6-.021-.312-.3-.473-.405-.739A3.2,3.2,0,0,1,46.81,6.1c.444.414.58,1.133,1.221.305-.143-.069-.254-.273-.338-.335a2.279,2.279,0,0,1,2.474.781c1.448,1.733-1.319.748-1.191,1.8-.634-.045-1.01-.456-1.589-.616-.275-.076-.706.1-.925.012-.3-.125-.321-.482-.59-.612-1.058-.512-2.793,1.146-3.493,1.81-.191.18-.422.25-.514.525-.159.471.228.489.239.89.017.572-.634.994-.743,1.483-.263,1.173,1.147,2.42,1.287,3.618.078.664-.45,1.532-.053,2.008.172.2.621.306.84.543a8.034,8.034,0,0,0,.585.742,33.371,33.371,0,0,0,2.767,2.032,1.572,1.572,0,0,0,1.642.076,8.817,8.817,0,0,0,1.585-.9c.541-.44.522-.873,1.233-.749.565.1,1.173.642,1.64-.042.609.362.265,1.332.284,1.895a2.4,2.4,0,0,0,1,1.735,1.9,1.9,0,0,1,.947,1.634,20.956,20.956,0,0,1,.089,2.223,7.991,7.991,0,0,0-.1,2.086,11.4,11.4,0,0,1,.695,1.891,16.1,16.1,0,0,1,.2,2.095c-.017.682-.332,1.359-.365,2.061a2.242,2.242,0,0,0,.776,1.871c.583.424.96.01,1.4-.523.858-1.051,1.01-2.521,1.449-3.766a21.568,21.568,0,0,0,1.125-3.7c.042-.266.107-.534.173-.8A25.763,25.763,0,0,1,40.88,52.088a26.021,26.021,0,0,1-5.193.709l-1.48,1.312A27.055,27.055,0,1,0,28.494.761m-4.715,40.48,23.173-.323L29.808,56.1c-.34.3-.649.178-.688-.274l-.349-3.964a30.162,30.162,0,0,1-15.7-.55c-6.048-1.956-10.5-6.155-12.2-11.261C-.9,34.97.08,29.025,3.329,23.965a25.816,25.816,0,0,1,4.194-5.039,26.847,26.847,0,0,0-.9,4.806c-.186.33-.362.663-.525,1-2.274,4.6-2.336,9.478-.342,13.3a14.957,14.957,0,0,0,10.573,7.531,24.976,24.976,0,0,0,9.876-.342l-2.725-3.332c-.287-.351-.153-.642.3-.648" transform="translate(0 0)" fill="#1b3f5e"/>
    </g>
  </g>
</svg>
