<svg id="Grupo_599089" data-name="Grupo 599089" xmlns="http://www.w3.org/2000/svg" xmlns:xlink="http://www.w3.org/1999/xlink" width="70.727" height="56.963" viewBox="0 0 70.727 56.963">
  <defs>
    <clipPath id="clip-path">
      <rect id="Rectángulo_55214" data-name="Rectángulo 55214" width="70.727" height="56.963" fill="none"/>
    </clipPath>
  </defs>
  <g id="Grupo_599089-2" data-name="Grupo 599089" clip-path="url(#clip-path)">
    <path id="Trazado_236276" data-name="Trazado 236276" d="M74.277,48.235h-5.05a1.038,1.038,0,0,1,0-2.076h5.05a9.341,9.341,0,0,0,9.331-9.331V30.77a9.332,9.332,0,0,0-13.156-8.51,1.991,1.991,0,0,1-2.816-1.81V17.43A9.329,9.329,0,0,0,50.242,12.74a1.967,1.967,0,0,1-1.259.933,2.012,2.012,0,0,1-1.556-.274,9.328,9.328,0,0,0-11.572,1.1,1.038,1.038,0,1,1-1.443-1.493,11.4,11.4,0,0,1,14.082-1.393A11.405,11.405,0,0,1,69.711,17.43v2.887A11.408,11.408,0,0,1,85.683,30.77v6.058A11.418,11.418,0,0,1,74.277,48.235" transform="translate(-14.956 -2.643)" fill="#1b3f5e"/>
    <path id="Trazado_236277" data-name="Trazado 236277" d="M49.344,56.77H11.406A11.419,11.419,0,0,1,0,45.363v-2.55A11.419,11.419,0,0,1,11.406,31.408a11.3,11.3,0,0,1,4.566.954v-2.61a11.392,11.392,0,0,1,.565-3.557,1.038,1.038,0,0,1,1.973.647,9.313,9.313,0,0,0-.463,2.909v2.743a1.991,1.991,0,0,1-2.817,1.81,9.242,9.242,0,0,0-3.825-.82,9.341,9.341,0,0,0-9.331,9.33v2.55a9.341,9.341,0,0,0,9.331,9.33H49.344a1.038,1.038,0,1,1,0,2.076" transform="translate(0 -11.177)" fill="#1b3f5e"/>
    <path id="Trazado_236278" data-name="Trazado 236278" d="M44.241,38.464c3.122,0,4.833,1.96,4.833,3.122a1.112,1.112,0,0,1-1.229,1.229c-1.577,0-1.113-2.159-3.6-2.159-1.711,0-3.123,1.478-3.123,4.069,0,2.176.864,4.069,3.222,4.069,2.143,0,2.093-2.292,3.405-2.292a1.2,1.2,0,0,1,1.328,1.046c0,1.727-2.093,3.438-4.733,3.438-3.737,0-5.946-2.143-5.946-6.262,0-3.371,1.993-6.261,5.847-6.261" transform="translate(-16.842 -16.873)" fill="#1b3f5e"/>
    <path id="Trazado_236279" data-name="Trazado 236279" d="M65.537,38.464c3.919,0,6.045,2.607,6.045,6.112,0,3.371-1.96,6.41-6.045,6.41-4.286,0-6.046-2.79-6.046-6.41,0-3.5,2.126-6.112,6.046-6.112m0,10.33c2.475,0,3.321-1.926,3.321-4.218s-1.1-3.92-3.321-3.92-3.322,1.627-3.322,3.92.764,4.218,3.322,4.218" transform="translate(-26.097 -16.873)" fill="#1b3f5e"/>
    <path id="Trazado_236280" data-name="Trazado 236280" d="M87.7,60.429a.888.888,0,1,1,0,1.777H83.39a.867.867,0,0,1-.9-.877c0-.656.158-.994,2.1-2.347l1-.7c.518-.359.708-.655.708-1.089a.828.828,0,0,0-.919-.856c-1.205,0-.581,1.469-1.776,1.469a.913.913,0,0,1-1.035-1.025c0-1.015.993-2.093,2.875-2.093,2.252,0,3.034,1.226,3.034,2.4A2.409,2.409,0,0,1,87.1,59.2l-1.914,1.205v.021Z" transform="translate(-36.186 -23.991)" fill="#1b3f5e"/>
    <path id="Trazado_236281" data-name="Trazado 236281" d="M101.707,6.816a3.408,3.408,0,1,1,3.408-3.408,3.412,3.412,0,0,1-3.408,3.408m0-4.74a1.332,1.332,0,1,0,1.332,1.332,1.333,1.333,0,0,0-1.332-1.332" transform="translate(-43.12 0)" fill="#1b3f5e"/>
    <path id="Trazado_236282" data-name="Trazado 236282" d="M23.557,97.386a2.618,2.618,0,1,1,2.618-2.618,2.62,2.62,0,0,1-2.618,2.618m0-3.16a.542.542,0,1,0,.542.542.542.542,0,0,0-.542-.542" transform="translate(-9.185 -40.423)" fill="#1b3f5e"/>
    <path id="Trazado_236283" data-name="Trazado 236283" d="M39.394,91.187a4.043,4.043,0,1,1,4.043-4.043,4.048,4.048,0,0,1-4.043,4.043m0-6.01a1.967,1.967,0,1,0,1.967,1.967,1.969,1.969,0,0,0-1.967-1.967" transform="translate(-15.507 -36.454)" fill="#1b3f5e"/>
  </g>
</svg>
