<svg id="Grupo_599091" data-name="Grupo 599091" xmlns="http://www.w3.org/2000/svg" xmlns:xlink="http://www.w3.org/1999/xlink" width="44.123" height="56.268" viewBox="0 0 44.123 56.268">
  <defs>
    <clipPath id="clip-path">
      <rect id="Rectángulo_55215" data-name="Rectángulo 55215" width="44.123" height="56.268" fill="none"/>
    </clipPath>
  </defs>
  <g id="Grupo_599090" data-name="Grupo 599090" clip-path="url(#clip-path)">
    <path id="Trazado_236284" data-name="Trazado 236284" d="M19.949,71.994A12.918,12.918,0,0,1,13.393,52a1.089,1.089,0,0,0,.1-.163,1.1,1.1,0,0,0-1.884-1.13,15.121,15.121,0,0,0,.067,18A15.243,15.243,0,0,0,19.3,74.1a1.1,1.1,0,1,0,.654-2.1Z" transform="translate(-4.068 -23.57)" fill="#1b3f5e"/>
    <path id="Trazado_236285" data-name="Trazado 236285" d="M44.123,25.747a9.7,9.7,0,0,0-1.89-5.781L35.258,9.613a1.1,1.1,0,0,0-1.828,0l-2.939,4.363L21.4.486a1.1,1.1,0,0,0-1.827,0L3.978,23.643a20.491,20.491,0,1,0,37,12.134,20.654,20.654,0,0,0-.177-2.7,9.757,9.757,0,0,0,3.319-7.335M34.345,12.2l6.06,9c.012.019.025.037.038.055a7.575,7.575,0,1,1-12.2,0l.037-.053,3.12-4.633.018-.025Zm4.433,23.577A18.287,18.287,0,1,1,5.769,24.926q.02-.027.038-.056l14.683-21.8,8.673,12.874-2.707,4.019A9.778,9.778,0,0,0,38.732,34.485C38.762,34.914,38.778,35.346,38.778,35.777Z" fill="#1b3f5e"/>
    <path id="Trazado_236286" data-name="Trazado 236286" d="M55.43,45.272a3.746,3.746,0,0,1,.323-1.532,1.1,1.1,0,0,0-2.014-.9,5.983,5.983,0,0,0,2.144,7.4,1.1,1.1,0,1,0,1.226-1.831A3.771,3.771,0,0,1,55.43,45.272Z" transform="translate(-24.97 -19.793)" fill="#1b3f5e"/>
    <path id="Trazado_236287" data-name="Trazado 236287" d="M35.745,93.495A1.1,1.1,0,1,0,34.512,95a1.11,1.11,0,0,0,1.233-1.5" transform="translate(-15.776 -43.545)" fill="#1b3f5e"/>
    <path id="Trazado_236288" data-name="Trazado 236288" d="M63.175,57.467a1.1,1.1,0,1,0,0-1.833,1.106,1.106,0,0,0,0,1.833" transform="translate(-29.411 -26.013)" fill="#1b3f5e"/>
  </g>
</svg>
