<svg xmlns="http://www.w3.org/2000/svg" width="1240" height="352" viewBox="0 0 1240 352">
  <g id="Grupo_599644" data-name="Grupo 599644" transform="translate(-1789 7934)">
    <path id="Trazado_237697" data-name="Trazado 237697" d="M14,0H1226a14,14,0,0,1,14,14V338a14,14,0,0,1-14,14H14A14,14,0,0,1,0,338V14A14,14,0,0,1,14,0Z" transform="translate(1789 -7934)" fill="#1b3f5e"/>
    <path id="Trazado_237699" data-name="Trazado 237699" d="M13,0H763a13,13,0,0,1,13,13V263a13,13,0,0,1-13,13H13A13,13,0,0,1,0,263V13A13,13,0,0,1,13,0Z" transform="translate(1806 -7915)" fill="#bddcf8" opacity="0.61"/>
    <path id="Trazado_237698" data-name="Trazado 237698" d="M-133.922,0V-11.375h3.211a5.169,5.169,0,0,1,2.625.656,4.438,4.438,0,0,1,1.762,1.867A6.078,6.078,0,0,1-125.7-6.07v.727a6.1,6.1,0,0,1-.621,2.82A4.369,4.369,0,0,1-128.09-.664,5.5,5.5,0,0,1-130.773,0Zm1.5-10.148v8.922h1.578a3.434,3.434,0,0,0,2.7-1.079,4.458,4.458,0,0,0,.965-3.073v-.665a4.529,4.529,0,0,0-.91-3.014,3.239,3.239,0,0,0-2.582-1.091Zm12.273,10.3a3.693,3.693,0,0,1-2.8-1.129,4.19,4.19,0,0,1-1.078-3.02v-.266a5.073,5.073,0,0,1,.48-2.246A3.748,3.748,0,0,1-122.2-8.051a3.378,3.378,0,0,1,1.871-.559,3.166,3.166,0,0,1,2.563,1.086,4.7,4.7,0,0,1,.914,3.109v.6h-5.727a3,3,0,0,0,.73,2.02,2.3,2.3,0,0,0,1.777.77,2.517,2.517,0,0,0,1.3-.312,3.259,3.259,0,0,0,.93-.828l.883.688A3.55,3.55,0,0,1-120.148.156Zm-.18-7.578a1.928,1.928,0,0,0-1.469.637A3.1,3.1,0,0,0-122.531-5h4.234v-.109a2.753,2.753,0,0,0-.594-1.707A1.815,1.815,0,0,0-120.328-7.422ZM-109.648,0h-1.445V-12h1.445Zm7.531,0a3.036,3.036,0,0,1-.2-.891A3.225,3.225,0,0,1-104.727.156a2.984,2.984,0,0,1-2.051-.707,2.288,2.288,0,0,1-.8-1.793,2.39,2.39,0,0,1,1-2.051,4.733,4.733,0,0,1,2.824-.73h1.406v-.664A1.623,1.623,0,0,0-102.8-7a1.821,1.821,0,0,0-1.336-.449,2.108,2.108,0,0,0-1.3.391,1.151,1.151,0,0,0-.523.945h-1.453a2,2,0,0,1,.449-1.223,3.066,3.066,0,0,1,1.219-.934,4.1,4.1,0,0,1,1.691-.344,3.342,3.342,0,0,1,2.289.73,2.635,2.635,0,0,1,.859,2.012v3.891a4.757,4.757,0,0,0,.3,1.852V0Zm-2.4-1.1a2.54,2.54,0,0,0,1.289-.352,2.127,2.127,0,0,0,.883-.914V-4.1h-1.133q-2.656,0-2.656,1.555a1.316,1.316,0,0,0,.453,1.063A1.742,1.742,0,0,0-104.516-1.1Zm13.234.078a2.082,2.082,0,0,0,1.352-.469,1.649,1.649,0,0,0,.641-1.172h1.367a2.621,2.621,0,0,1-.5,1.383,3.293,3.293,0,0,1-1.23,1.047,3.55,3.55,0,0,1-1.629.391A3.482,3.482,0,0,1-94.027-1a4.59,4.59,0,0,1-1.02-3.152v-.242a5.089,5.089,0,0,1,.453-2.2,3.451,3.451,0,0,1,1.3-1.492,3.7,3.7,0,0,1,2-.531,3.39,3.39,0,0,1,2.363.852,3.043,3.043,0,0,1,1,2.211h-1.367a1.992,1.992,0,0,0-.621-1.348,1.932,1.932,0,0,0-1.379-.527A2.023,2.023,0,0,0-93-6.629,3.724,3.724,0,0,0-93.6-4.336v.273a3.65,3.65,0,0,0,.6,2.25A2.033,2.033,0,0,0-91.281-1.023Zm10.2.188a3.07,3.07,0,0,1-2.477.992,2.628,2.628,0,0,1-2.059-.785,3.4,3.4,0,0,1-.715-2.324v-5.5h1.445v5.461q0,1.922,1.563,1.922a2.163,2.163,0,0,0,2.2-1.234V-8.453h1.445V0h-1.375Zm4.969-7.617.047,1.063a3.08,3.08,0,0,1,2.531-1.219q2.68,0,2.7,3.023V0h-1.445V-5.594a1.946,1.946,0,0,0-.418-1.352,1.675,1.675,0,0,0-1.277-.437,2.086,2.086,0,0,0-1.234.375,2.546,2.546,0,0,0-.828.984V0h-1.445V-8.453ZM-63.43,0a3.036,3.036,0,0,1-.2-.891A3.225,3.225,0,0,1-66.039.156,2.984,2.984,0,0,1-68.09-.551a2.288,2.288,0,0,1-.8-1.793,2.39,2.39,0,0,1,1-2.051,4.733,4.733,0,0,1,2.824-.73h1.406v-.664A1.623,1.623,0,0,0-64.109-7a1.821,1.821,0,0,0-1.336-.449,2.108,2.108,0,0,0-1.3.391,1.151,1.151,0,0,0-.523.945h-1.453a2,2,0,0,1,.449-1.223,3.066,3.066,0,0,1,1.219-.934,4.1,4.1,0,0,1,1.691-.344,3.342,3.342,0,0,1,2.289.73,2.635,2.635,0,0,1,.859,2.012v3.891a4.757,4.757,0,0,0,.3,1.852V0Zm-2.4-1.1a2.54,2.54,0,0,0,1.289-.352,2.127,2.127,0,0,0,.883-.914V-4.1h-1.133q-2.656,0-2.656,1.555a1.316,1.316,0,0,0,.453,1.063A1.742,1.742,0,0,0-65.828-1.1ZM-50.766,0a3.036,3.036,0,0,1-.2-.891A3.225,3.225,0,0,1-53.375.156a2.984,2.984,0,0,1-2.051-.707,2.287,2.287,0,0,1-.8-1.793,2.39,2.39,0,0,1,1-2.051,4.733,4.733,0,0,1,2.824-.73h1.406v-.664A1.623,1.623,0,0,0-51.445-7a1.821,1.821,0,0,0-1.336-.449,2.107,2.107,0,0,0-1.3.391,1.151,1.151,0,0,0-.523.945h-1.453a2,2,0,0,1,.449-1.223,3.066,3.066,0,0,1,1.219-.934A4.1,4.1,0,0,1-52.7-8.609a3.342,3.342,0,0,1,2.289.73,2.635,2.635,0,0,1,.859,2.012v3.891a4.757,4.757,0,0,0,.3,1.852V0Zm-2.4-1.1a2.54,2.54,0,0,0,1.289-.352,2.127,2.127,0,0,0,.883-.914V-4.1h-1.133q-2.656,0-2.656,1.555a1.316,1.316,0,0,0,.453,1.063A1.742,1.742,0,0,0-53.164-1.1ZM-41.75,0H-43.2V-12h1.445Zm7.531,0a3.036,3.036,0,0,1-.2-.891A3.225,3.225,0,0,1-36.828.156a2.984,2.984,0,0,1-2.051-.707,2.287,2.287,0,0,1-.8-1.793,2.39,2.39,0,0,1,1-2.051,4.733,4.733,0,0,1,2.824-.73h1.406v-.664A1.623,1.623,0,0,0-34.9-7a1.821,1.821,0,0,0-1.336-.449,2.107,2.107,0,0,0-1.3.391,1.151,1.151,0,0,0-.523.945h-1.453a2,2,0,0,1,.449-1.223,3.066,3.066,0,0,1,1.219-.934,4.1,4.1,0,0,1,1.691-.344,3.342,3.342,0,0,1,2.289.73A2.635,2.635,0,0,1-33-5.867v3.891a4.757,4.757,0,0,0,.3,1.852V0Zm-2.4-1.1a2.54,2.54,0,0,0,1.289-.352,2.127,2.127,0,0,0,.883-.914V-4.1h-1.133q-2.656,0-2.656,1.555a1.316,1.316,0,0,0,.453,1.063A1.742,1.742,0,0,0-36.617-1.1Zm11.8-9.4v2.047h1.578v1.117h-1.578v5.249a1.173,1.173,0,0,0,.211.763.888.888,0,0,0,.719.254,3.5,3.5,0,0,0,.688-.094V0A4.215,4.215,0,0,1-24.3.156,1.8,1.8,0,0,1-25.766-.43a2.517,2.517,0,0,1-.492-1.664V-7.336H-27.8V-8.453h1.539V-10.5Zm8.484,9.664A3.07,3.07,0,0,1-18.8.156a2.628,2.628,0,0,1-2.059-.785,3.4,3.4,0,0,1-.715-2.324v-5.5h1.445v5.461q0,1.922,1.563,1.922a2.163,2.163,0,0,0,2.2-1.234V-8.453h1.445V0H-16.3Zm4.961-7.617.039.938A3.122,3.122,0,0,1-8.82-8.609,2.417,2.417,0,0,1-6.406-7.25a3.2,3.2,0,0,1,1.1-.984,3.242,3.242,0,0,1,1.6-.375q2.781,0,2.828,2.945V0H-2.328V-5.578a1.941,1.941,0,0,0-.414-1.355,1.823,1.823,0,0,0-1.391-.449,1.916,1.916,0,0,0-1.336.48,1.949,1.949,0,0,0-.617,1.293V0H-7.539V-5.539a1.613,1.613,0,0,0-1.8-1.844,1.934,1.934,0,0,0-1.945,1.211V0h-1.445V-8.453Zm19.82,4.32A5.026,5.026,0,0,1,7.563-1.02,2.846,2.846,0,0,1,5.172.156,2.947,2.947,0,0,1,2.7-.977L2.625,0H1.3V-12H2.742v4.477A2.93,2.93,0,0,1,5.156-8.609,2.863,2.863,0,0,1,7.574-7.445a5.177,5.177,0,0,1,.879,3.188ZM7.008-4.3a3.906,3.906,0,0,0-.57-2.281,1.888,1.888,0,0,0-1.641-.8A2.122,2.122,0,0,0,2.742-6.055V-2.4A2.181,2.181,0,0,0,4.813-1.07a1.878,1.878,0,0,0,1.617-.8A4.153,4.153,0,0,0,7.008-4.3ZM15.492,0a3.036,3.036,0,0,1-.2-.891A3.225,3.225,0,0,1,12.883.156a2.984,2.984,0,0,1-2.051-.707,2.287,2.287,0,0,1-.8-1.793,2.39,2.39,0,0,1,1-2.051,4.733,4.733,0,0,1,2.824-.73h1.406v-.664A1.623,1.623,0,0,0,14.813-7a1.821,1.821,0,0,0-1.336-.449,2.107,2.107,0,0,0-1.3.391,1.151,1.151,0,0,0-.523.945H10.2a2,2,0,0,1,.449-1.223,3.066,3.066,0,0,1,1.219-.934,4.1,4.1,0,0,1,1.691-.344,3.342,3.342,0,0,1,2.289.73,2.635,2.635,0,0,1,.859,2.012v3.891a4.757,4.757,0,0,0,.3,1.852V0Zm-2.4-1.1a2.54,2.54,0,0,0,1.289-.352,2.127,2.127,0,0,0,.883-.914V-4.1H14.133q-2.656,0-2.656,1.555a1.316,1.316,0,0,0,.453,1.063A1.742,1.742,0,0,0,13.094-1.1Zm9.75-3.484A14.789,14.789,0,0,1,23.8-8.1a10.894,10.894,0,0,1,1.715-2.918,7.045,7.045,0,0,1,2.266-1.824l.211.969a8.108,8.108,0,0,0-2.105,2.387,12.281,12.281,0,0,0-1.355,3.5,16.834,16.834,0,0,0-.461,4A8.85,8.85,0,0,0,24.488.855,4.494,4.494,0,0,0,25.7,2.8l-.352.875a5.641,5.641,0,0,1-2-2.68,10.335,10.335,0,0,1-.629-4.062,12.351,12.351,0,0,1,.109-1.43ZM31-1.016a2.145,2.145,0,0,0,1.367-.441,2.1,2.1,0,0,0,.8-1.2L34.5-2.664a3.014,3.014,0,0,1-.637,1.453A3.553,3.553,0,0,1,32.555-.187a3.551,3.551,0,0,1-1.617.344,3.017,3.017,0,0,1-1.785-.551,3.084,3.084,0,0,1-1.074-1.492,4.972,4.972,0,0,1-.234-2.152l.039-.391a5.605,5.605,0,0,1,.711-2.18,4.11,4.11,0,0,1,1.469-1.5,3.648,3.648,0,0,1,2-.5,2.857,2.857,0,0,1,2.125.891,3.08,3.08,0,0,1,.8,2.18l-1.32-.008a2.029,2.029,0,0,0-.461-1.34A1.607,1.607,0,0,0,32-7.43a2.254,2.254,0,0,0-1.832.82,4.3,4.3,0,0,0-.91,2.359l-.023.2a6.776,6.776,0,0,0-.016,1.031,2.355,2.355,0,0,0,.516,1.445A1.656,1.656,0,0,0,31-1.016Zm9.891-6.148-.664-.07a2.42,2.42,0,0,0-2.141,1.227L37.047,0H35.633L37.1-8.453l1.367-.008-.211.984a2.527,2.527,0,0,1,2.117-1.148,2.594,2.594,0,0,1,.672.117ZM45.82,0a1.894,1.894,0,0,1-.055-.445l.023-.445A3.465,3.465,0,0,1,43.32.156,2.526,2.526,0,0,1,41.5-.551a2.14,2.14,0,0,1-.637-1.73,2.6,2.6,0,0,1,1.176-2.1,5.005,5.005,0,0,1,2.887-.754l1.477.008L46.5-5.8A1.545,1.545,0,0,0,46.207-7a1.414,1.414,0,0,0-1.113-.457,2.181,2.181,0,0,0-1.285.355,1.513,1.513,0,0,0-.684.98L41.7-6.109a2.266,2.266,0,0,1,.578-1.316,3.363,3.363,0,0,1,1.3-.891,4.215,4.215,0,0,1,1.648-.3,2.8,2.8,0,0,1,2.055.8,2.484,2.484,0,0,1,.617,2.043l-.687,4.188-.039.6a2.949,2.949,0,0,0,.094.852L47.258,0ZM43.6-1.094a2.466,2.466,0,0,0,1.285-.324,3.254,3.254,0,0,0,1.043-.941l.3-1.742-1.07-.008a4.054,4.054,0,0,0-2.047.422,1.554,1.554,0,0,0-.8,1.2,1.21,1.21,0,0,0,.277.988A1.321,1.321,0,0,0,43.6-1.094Zm5.977-3.148a6.578,6.578,0,0,1,.711-2.328,4.03,4.03,0,0,1,1.367-1.555,3.127,3.127,0,0,1,1.789-.492,2.64,2.64,0,0,1,2.172,1.031L56.43-12h1.414L55.766,0H54.477l.148-.906A3.116,3.116,0,0,1,52.156.156a2.335,2.335,0,0,1-1.867-.918,4,4,0,0,1-.75-2.379A7.6,7.6,0,0,1,49.578-4.242Zm1.359.808a2.929,2.929,0,0,0,.4,1.732,1.437,1.437,0,0,0,1.234.632A2.554,2.554,0,0,0,54.75-2.3l.672-3.9a1.754,1.754,0,0,0-1.7-1.186,2.143,2.143,0,0,0-1.473.5,3.256,3.256,0,0,0-.969,1.475A6.082,6.082,0,0,0,50.938-3.435ZM59.531,0H58.125L60.2-12h1.414ZM65.5.156a3.048,3.048,0,0,1-2.469-1.164,4.006,4.006,0,0,1-.75-2.9l.039-.336a5.624,5.624,0,0,1,.746-2.3,4.339,4.339,0,0,1,1.5-1.566,3.491,3.491,0,0,1,1.906-.5,2.688,2.688,0,0,1,2.047.867,3.566,3.566,0,0,1,.813,2.266A6.62,6.62,0,0,1,69.3-4.461l-.086.648H63.688a2.856,2.856,0,0,0,.379,1.953,1.8,1.8,0,0,0,1.551.836A3.007,3.007,0,0,0,67.93-2.148l.813.688a3.718,3.718,0,0,1-1.371,1.2A3.886,3.886,0,0,1,65.5.156Zm.9-7.586a2.066,2.066,0,0,0-1.527.594A4.22,4.22,0,0,0,63.836-5l4.109.008.031-.125a2.313,2.313,0,0,0-.316-1.637A1.488,1.488,0,0,0,66.4-7.43ZM77.8-10.5l-.359,2.047h1.539l-.2,1.117H77.25l-.883,5.258a1.833,1.833,0,0,0-.008.375.6.6,0,0,0,.664.609,4.05,4.05,0,0,0,.688-.078L77.6.008A3.847,3.847,0,0,1,76.57.148,1.476,1.476,0,0,1,75.3-.473,2.4,2.4,0,0,1,74.977-2.1l.859-5.234H74.344l.2-1.117h1.492l.359-2.047ZM83.75-8.609a3.047,3.047,0,0,1,1.82.578A3.285,3.285,0,0,1,86.691-6.48a4.8,4.8,0,0,1,.246,2.16l-.016.172a5.685,5.685,0,0,1-.734,2.23A4.309,4.309,0,0,1,84.672-.367a3.7,3.7,0,0,1-2.039.523,3.052,3.052,0,0,1-1.816-.578A3.21,3.21,0,0,1,79.7-1.953a4.931,4.931,0,0,1-.25-2.133,5.76,5.76,0,0,1,.711-2.359,4.409,4.409,0,0,1,1.527-1.621A3.652,3.652,0,0,1,83.75-8.609ZM80.875-4.078a4.8,4.8,0,0,0,0,1.023,2.507,2.507,0,0,0,.551,1.469,1.653,1.653,0,0,0,1.262.57,2.253,2.253,0,0,0,1.3-.348,2.919,2.919,0,0,0,1-1.121,4.721,4.721,0,0,0,.523-1.664,7.5,7.5,0,0,0,.023-1.211,2.6,2.6,0,0,0-.57-1.492A1.69,1.69,0,0,0,83.7-7.43a2.3,2.3,0,0,0-1.859.859,4.245,4.245,0,0,0-.945,2.313ZM92.32-4.242a6.889,6.889,0,0,1,.746-2.4,3.9,3.9,0,0,1,1.359-1.508,3.151,3.151,0,0,1,1.754-.465A2.6,2.6,0,0,1,98.4-7.508l.281-.945h1.3L98.57-.18a4.113,4.113,0,0,1-1.312,2.59,3.7,3.7,0,0,1-2.68.926,3.8,3.8,0,0,1-1.645-.406A3.127,3.127,0,0,1,91.7,1.859l.8-.867a2.419,2.419,0,0,0,2.023,1.164,2.425,2.425,0,0,0,1.707-.562,2.9,2.9,0,0,0,.926-1.687l.156-.75a3.2,3.2,0,0,1-2.414,1A2.486,2.486,0,0,1,93.527-.27a2.589,2.589,0,0,1-.9-1.164,4.759,4.759,0,0,1-.352-1.7A8.734,8.734,0,0,1,92.32-4.242Zm1.367.8a2.974,2.974,0,0,0,.387,1.728,1.461,1.461,0,0,0,1.238.644,2.561,2.561,0,0,0,2.18-1.241l.664-3.878a1.776,1.776,0,0,0-1.7-1.2,2.194,2.194,0,0,0-1.887.936A4.878,4.878,0,0,0,93.7-3.84Zm12.266-3.722-.664-.07a2.42,2.42,0,0,0-2.141,1.227L102.109,0H100.7l1.469-8.453,1.367-.008-.211.984a2.527,2.527,0,0,1,2.117-1.148,2.594,2.594,0,0,1,.672.117ZM110.883,0a1.893,1.893,0,0,1-.055-.445l.023-.445A3.465,3.465,0,0,1,108.383.156a2.526,2.526,0,0,1-1.816-.707,2.14,2.14,0,0,1-.637-1.73,2.6,2.6,0,0,1,1.176-2.1,5.005,5.005,0,0,1,2.887-.754l1.477.008.094-.672A1.545,1.545,0,0,0,111.27-7a1.414,1.414,0,0,0-1.113-.457,2.181,2.181,0,0,0-1.285.355,1.513,1.513,0,0,0-.684.98l-1.422.008a2.266,2.266,0,0,1,.578-1.316,3.363,3.363,0,0,1,1.3-.891,4.215,4.215,0,0,1,1.648-.3,2.8,2.8,0,0,1,2.055.8,2.484,2.484,0,0,1,.617,2.043l-.687,4.188-.039.6a2.949,2.949,0,0,0,.094.852L112.32,0Zm-2.219-1.094a2.466,2.466,0,0,0,1.285-.324,3.254,3.254,0,0,0,1.043-.941l.3-1.742-1.07-.008a4.054,4.054,0,0,0-2.047.422,1.554,1.554,0,0,0-.8,1.2,1.21,1.21,0,0,0,.277.988A1.321,1.321,0,0,0,108.664-1.094Zm8.523-.883,3.047-6.477h1.492L117.469,0h-1.078l-1.656-8.453h1.391Zm8.18,2.133A3.048,3.048,0,0,1,122.9-1.008a4.006,4.006,0,0,1-.75-2.9l.039-.336a5.624,5.624,0,0,1,.746-2.3,4.339,4.339,0,0,1,1.5-1.566,3.491,3.491,0,0,1,1.906-.5,2.688,2.688,0,0,1,2.047.867,3.566,3.566,0,0,1,.813,2.266,6.621,6.621,0,0,1-.031,1.016l-.086.648h-5.523a2.856,2.856,0,0,0,.379,1.953,1.8,1.8,0,0,0,1.551.836A3.007,3.007,0,0,0,127.8-2.148l.813.688a3.718,3.718,0,0,1-1.371,1.2A3.886,3.886,0,0,1,125.367.156Zm.9-7.586a2.066,2.066,0,0,0-1.527.594A4.22,4.22,0,0,0,123.7-5l4.109.008.031-.125a2.313,2.313,0,0,0-.316-1.637A1.488,1.488,0,0,0,126.266-7.43Zm7.773,2.859a14.5,14.5,0,0,1-.992,3.605A10.841,10.841,0,0,1,131.324,1.9,7.163,7.163,0,0,1,129.1,3.68l-.219-.9q2.68-2.016,3.578-6.477a16.834,16.834,0,0,0,.344-3.461q-.039-3.352-1.625-4.8l.367-.875a5.179,5.179,0,0,1,1.48,1.621,7.645,7.645,0,0,1,.891,2.352,12.043,12.043,0,0,1,.254,2.777,13.344,13.344,0,0,1-.117,1.43Z" transform="translate(2863 -7607)" fill="#fff"/>
    <path id="Trazado_237700" data-name="Trazado 237700" d="M-130.379,0V-11.375h3.211a5.169,5.169,0,0,1,2.625.656,4.438,4.438,0,0,1,1.762,1.867,6.078,6.078,0,0,1,.629,2.781v.727a6.1,6.1,0,0,1-.621,2.82,4.369,4.369,0,0,1-1.773,1.859A5.5,5.5,0,0,1-127.23,0Zm1.5-10.148v8.922h1.578a3.434,3.434,0,0,0,2.7-1.079,4.458,4.458,0,0,0,.965-3.073v-.665a4.529,4.529,0,0,0-.91-3.014,3.239,3.239,0,0,0-2.582-1.091Zm12.273,10.3a3.693,3.693,0,0,1-2.8-1.129,4.19,4.19,0,0,1-1.078-3.02v-.266A5.073,5.073,0,0,1-120-6.5a3.748,3.748,0,0,1,1.344-1.547,3.378,3.378,0,0,1,1.871-.559,3.166,3.166,0,0,1,2.563,1.086,4.7,4.7,0,0,1,.914,3.109v.6h-5.727a3,3,0,0,0,.73,2.02,2.3,2.3,0,0,0,1.777.77,2.517,2.517,0,0,0,1.3-.312,3.259,3.259,0,0,0,.93-.828l.883.688A3.55,3.55,0,0,1-116.605.156Zm-.18-7.578a1.928,1.928,0,0,0-1.469.637A3.1,3.1,0,0,0-118.988-5h4.234v-.109a2.753,2.753,0,0,0-.594-1.707A1.815,1.815,0,0,0-116.785-7.422ZM-106.105,0h-1.445V-12h1.445Zm7.531,0a3.036,3.036,0,0,1-.2-.891A3.225,3.225,0,0,1-101.184.156a2.984,2.984,0,0,1-2.051-.707,2.288,2.288,0,0,1-.8-1.793,2.39,2.39,0,0,1,1-2.051,4.733,4.733,0,0,1,2.824-.73H-98.8v-.664A1.623,1.623,0,0,0-99.254-7a1.821,1.821,0,0,0-1.336-.449,2.108,2.108,0,0,0-1.3.391,1.151,1.151,0,0,0-.523.945h-1.453a2,2,0,0,1,.449-1.223,3.066,3.066,0,0,1,1.219-.934,4.1,4.1,0,0,1,1.691-.344,3.342,3.342,0,0,1,2.289.73,2.635,2.635,0,0,1,.859,2.012v3.891a4.757,4.757,0,0,0,.3,1.852V0Zm-2.4-1.1a2.54,2.54,0,0,0,1.289-.352,2.127,2.127,0,0,0,.883-.914V-4.1h-1.133q-2.656,0-2.656,1.555a1.316,1.316,0,0,0,.453,1.063A1.742,1.742,0,0,0-100.973-1.1Zm13.234.078a2.082,2.082,0,0,0,1.352-.469,1.649,1.649,0,0,0,.641-1.172h1.367a2.621,2.621,0,0,1-.5,1.383,3.293,3.293,0,0,1-1.23,1.047,3.55,3.55,0,0,1-1.629.391A3.482,3.482,0,0,1-90.484-1,4.59,4.59,0,0,1-91.5-4.148v-.242a5.089,5.089,0,0,1,.453-2.2,3.451,3.451,0,0,1,1.3-1.492,3.7,3.7,0,0,1,2-.531,3.39,3.39,0,0,1,2.363.852,3.043,3.043,0,0,1,1,2.211h-1.367a1.992,1.992,0,0,0-.621-1.348,1.932,1.932,0,0,0-1.379-.527,2.023,2.023,0,0,0-1.707.793,3.724,3.724,0,0,0-.605,2.293v.273a3.65,3.65,0,0,0,.6,2.25A2.033,2.033,0,0,0-87.738-1.023Zm10.2.188a3.07,3.07,0,0,1-2.477.992A2.628,2.628,0,0,1-82.07-.629a3.4,3.4,0,0,1-.715-2.324v-5.5h1.445v5.461q0,1.922,1.563,1.922a2.163,2.163,0,0,0,2.2-1.234V-8.453h1.445V0H-77.5Zm4.969-7.617.047,1.063a3.08,3.08,0,0,1,2.531-1.219q2.68,0,2.7,3.023V0H-68.73V-5.594a1.946,1.946,0,0,0-.418-1.352,1.675,1.675,0,0,0-1.277-.437,2.086,2.086,0,0,0-1.234.375,2.546,2.546,0,0,0-.828.984V0h-1.445V-8.453ZM-59.887,0a3.036,3.036,0,0,1-.2-.891A3.225,3.225,0,0,1-62.5.156a2.984,2.984,0,0,1-2.051-.707,2.288,2.288,0,0,1-.8-1.793,2.39,2.39,0,0,1,1-2.051,4.733,4.733,0,0,1,2.824-.73h1.406v-.664A1.623,1.623,0,0,0-60.566-7,1.821,1.821,0,0,0-61.9-7.445a2.107,2.107,0,0,0-1.3.391,1.151,1.151,0,0,0-.523.945h-1.453a2,2,0,0,1,.449-1.223,3.066,3.066,0,0,1,1.219-.934,4.1,4.1,0,0,1,1.691-.344,3.342,3.342,0,0,1,2.289.73,2.635,2.635,0,0,1,.859,2.012v3.891a4.757,4.757,0,0,0,.3,1.852V0Zm-2.4-1.1A2.54,2.54,0,0,0-61-1.453a2.127,2.127,0,0,0,.883-.914V-4.1h-1.133Q-63.9-4.1-63.9-2.547a1.316,1.316,0,0,0,.453,1.063A1.742,1.742,0,0,0-62.285-1.1ZM-47.223,0a3.036,3.036,0,0,1-.2-.891A3.225,3.225,0,0,1-49.832.156a2.984,2.984,0,0,1-2.051-.707,2.287,2.287,0,0,1-.8-1.793,2.39,2.39,0,0,1,1-2.051,4.733,4.733,0,0,1,2.824-.73h1.406v-.664A1.623,1.623,0,0,0-47.9-7a1.821,1.821,0,0,0-1.336-.449,2.107,2.107,0,0,0-1.3.391,1.151,1.151,0,0,0-.523.945h-1.453a2,2,0,0,1,.449-1.223,3.066,3.066,0,0,1,1.219-.934,4.1,4.1,0,0,1,1.691-.344,3.342,3.342,0,0,1,2.289.73A2.635,2.635,0,0,1-46-5.867v3.891a4.757,4.757,0,0,0,.3,1.852V0Zm-2.4-1.1a2.54,2.54,0,0,0,1.289-.352,2.127,2.127,0,0,0,.883-.914V-4.1h-1.133q-2.656,0-2.656,1.555a1.316,1.316,0,0,0,.453,1.063A1.742,1.742,0,0,0-49.621-1.1ZM-38.207,0h-1.445V-12h1.445Zm7.531,0a3.036,3.036,0,0,1-.2-.891A3.225,3.225,0,0,1-33.285.156a2.984,2.984,0,0,1-2.051-.707,2.287,2.287,0,0,1-.8-1.793,2.39,2.39,0,0,1,1-2.051,4.733,4.733,0,0,1,2.824-.73H-30.9v-.664A1.623,1.623,0,0,0-31.355-7a1.821,1.821,0,0,0-1.336-.449,2.107,2.107,0,0,0-1.3.391,1.151,1.151,0,0,0-.523.945h-1.453a2,2,0,0,1,.449-1.223A3.066,3.066,0,0,1-34.3-8.266a4.1,4.1,0,0,1,1.691-.344,3.342,3.342,0,0,1,2.289.73,2.635,2.635,0,0,1,.859,2.012v3.891a4.757,4.757,0,0,0,.3,1.852V0Zm-2.4-1.1a2.54,2.54,0,0,0,1.289-.352,2.127,2.127,0,0,0,.883-.914V-4.1h-1.133q-2.656,0-2.656,1.555a1.316,1.316,0,0,0,.453,1.063A1.742,1.742,0,0,0-33.074-1.1ZM-16.09-4.133a5.062,5.062,0,0,1-.883,3.109A2.829,2.829,0,0,1-19.363.156,3.1,3.1,0,0,1-21.785-.82V3.25H-23.23v-11.7h1.32l.07.938a2.977,2.977,0,0,1,2.453-1.094,2.882,2.882,0,0,1,2.41,1.148,5.117,5.117,0,0,1,.887,3.2ZM-17.535-4.3a3.735,3.735,0,0,0-.609-2.258,1.963,1.963,0,0,0-1.672-.828,2.125,2.125,0,0,0-1.969,1.164V-2.18A2.129,2.129,0,0,0-19.8-1.023a1.954,1.954,0,0,0,1.652-.824A4.077,4.077,0,0,0-17.535-4.3Zm8.5,3.461a3.07,3.07,0,0,1-2.477.992A2.628,2.628,0,0,1-13.57-.629a3.4,3.4,0,0,1-.715-2.324v-5.5h1.445v5.461q0,1.922,1.563,1.922A2.163,2.163,0,0,0-9.074-2.3V-8.453h1.445V0H-9Zm7.109.992a3.693,3.693,0,0,1-2.8-1.129A4.19,4.19,0,0,1-5.8-3.992v-.266A5.073,5.073,0,0,1-5.32-6.5,3.748,3.748,0,0,1-3.977-8.051a3.378,3.378,0,0,1,1.871-.559A3.166,3.166,0,0,1,.457-7.523a4.7,4.7,0,0,1,.914,3.109v.6H-4.355a3,3,0,0,0,.73,2.02,2.3,2.3,0,0,0,1.777.77,2.517,2.517,0,0,0,1.3-.312,3.259,3.259,0,0,0,.93-.828l.883.688A3.55,3.55,0,0,1-1.926.156Zm-.18-7.578a1.928,1.928,0,0,0-1.469.637A3.1,3.1,0,0,0-4.309-5H-.074v-.109A2.753,2.753,0,0,0-.668-6.816,1.815,1.815,0,0,0-2.105-7.422Zm9.234.266a4.331,4.331,0,0,0-.711-.055A1.9,1.9,0,0,0,4.488-6V0H3.043V-8.453H4.449l.023.977A2.251,2.251,0,0,1,6.488-8.609a1.477,1.477,0,0,1,.641.109Zm3.68-3.344v2.047h1.578v1.117H10.809v5.249a1.173,1.173,0,0,0,.211.763.888.888,0,0,0,.719.254,3.5,3.5,0,0,0,.688-.094V0a4.215,4.215,0,0,1-1.109.155A1.8,1.8,0,0,1,9.855-.43a2.517,2.517,0,0,1-.492-1.664V-7.336H7.824V-8.453H9.363V-10.5ZM19.293,0a3.036,3.036,0,0,1-.2-.891A3.225,3.225,0,0,1,16.684.156a2.984,2.984,0,0,1-2.051-.707,2.287,2.287,0,0,1-.8-1.793,2.39,2.39,0,0,1,1-2.051,4.733,4.733,0,0,1,2.824-.73h1.406v-.664A1.623,1.623,0,0,0,18.613-7a1.821,1.821,0,0,0-1.336-.449,2.108,2.108,0,0,0-1.3.391,1.151,1.151,0,0,0-.523.945H14a2,2,0,0,1,.449-1.223,3.066,3.066,0,0,1,1.219-.934,4.1,4.1,0,0,1,1.691-.344,3.342,3.342,0,0,1,2.289.73,2.635,2.635,0,0,1,.859,2.012v3.891a4.757,4.757,0,0,0,.3,1.852V0Zm-2.4-1.1a2.54,2.54,0,0,0,1.289-.352,2.127,2.127,0,0,0,.883-.914V-4.1H17.934q-2.656,0-2.656,1.555a1.316,1.316,0,0,0,.453,1.063A1.742,1.742,0,0,0,16.895-1.1Zm9.75-3.484A14.789,14.789,0,0,1,27.6-8.1a10.894,10.894,0,0,1,1.715-2.918,7.045,7.045,0,0,1,2.266-1.824l.211.969a8.108,8.108,0,0,0-2.105,2.387,12.281,12.281,0,0,0-1.355,3.5,16.834,16.834,0,0,0-.461,4A8.85,8.85,0,0,0,28.289.855,4.494,4.494,0,0,0,29.5,2.8l-.352.875a5.641,5.641,0,0,1-2-2.68A10.335,10.335,0,0,1,26.52-3.07a12.351,12.351,0,0,1,.109-1.43ZM34.8-1.016a2.145,2.145,0,0,0,1.367-.441,2.1,2.1,0,0,0,.8-1.2L38.3-2.664a3.014,3.014,0,0,1-.637,1.453A3.553,3.553,0,0,1,36.355-.187a3.551,3.551,0,0,1-1.617.344,3.017,3.017,0,0,1-1.785-.551,3.084,3.084,0,0,1-1.074-1.492,4.972,4.972,0,0,1-.234-2.152l.039-.391a5.605,5.605,0,0,1,.711-2.18,4.11,4.11,0,0,1,1.469-1.5,3.648,3.648,0,0,1,2-.5,2.857,2.857,0,0,1,2.125.891,3.08,3.08,0,0,1,.8,2.18l-1.32-.008A2.029,2.029,0,0,0,37-6.887a1.607,1.607,0,0,0-1.2-.543,2.254,2.254,0,0,0-1.832.82,4.3,4.3,0,0,0-.91,2.359l-.023.2a6.776,6.776,0,0,0-.016,1.031,2.355,2.355,0,0,0,.516,1.445A1.656,1.656,0,0,0,34.8-1.016Zm9.891-6.148-.664-.07a2.42,2.42,0,0,0-2.141,1.227L40.848,0H39.434L40.9-8.453l1.367-.008-.211.984a2.527,2.527,0,0,1,2.117-1.148,2.594,2.594,0,0,1,.672.117ZM49.621,0a1.894,1.894,0,0,1-.055-.445l.023-.445A3.465,3.465,0,0,1,47.121.156,2.526,2.526,0,0,1,45.3-.551a2.14,2.14,0,0,1-.637-1.73,2.6,2.6,0,0,1,1.176-2.1,5.005,5.005,0,0,1,2.887-.754l1.477.008L50.3-5.8A1.545,1.545,0,0,0,50.008-7a1.414,1.414,0,0,0-1.113-.457,2.181,2.181,0,0,0-1.285.355,1.513,1.513,0,0,0-.684.98L45.5-6.109a2.266,2.266,0,0,1,.578-1.316,3.363,3.363,0,0,1,1.3-.891,4.215,4.215,0,0,1,1.648-.3,2.8,2.8,0,0,1,2.055.8,2.484,2.484,0,0,1,.617,2.043L51.02-1.586l-.039.6a2.949,2.949,0,0,0,.094.852L51.059,0ZM47.4-1.094a2.466,2.466,0,0,0,1.285-.324,3.254,3.254,0,0,0,1.043-.941l.3-1.742-1.07-.008a4.054,4.054,0,0,0-2.047.422,1.554,1.554,0,0,0-.8,1.2,1.21,1.21,0,0,0,.277.988A1.321,1.321,0,0,0,47.4-1.094Zm5.977-3.148A6.578,6.578,0,0,1,54.09-6.57a4.03,4.03,0,0,1,1.367-1.555,3.127,3.127,0,0,1,1.789-.492,2.64,2.64,0,0,1,2.172,1.031L60.23-12h1.414L59.566,0H58.277l.148-.906A3.116,3.116,0,0,1,55.957.156,2.335,2.335,0,0,1,54.09-.762a4,4,0,0,1-.75-2.379A7.6,7.6,0,0,1,53.379-4.242Zm1.359.808a2.929,2.929,0,0,0,.4,1.732,1.437,1.437,0,0,0,1.234.632A2.554,2.554,0,0,0,58.551-2.3l.672-3.9a1.754,1.754,0,0,0-1.7-1.186,2.143,2.143,0,0,0-1.473.5,3.256,3.256,0,0,0-.969,1.475A6.082,6.082,0,0,0,54.738-3.435ZM63.332,0H61.926L64-12h1.414ZM69.3.156a3.048,3.048,0,0,1-2.469-1.164,4.006,4.006,0,0,1-.75-2.9l.039-.336a5.624,5.624,0,0,1,.746-2.3,4.339,4.339,0,0,1,1.5-1.566,3.491,3.491,0,0,1,1.906-.5,2.688,2.688,0,0,1,2.047.867,3.566,3.566,0,0,1,.813,2.266A6.62,6.62,0,0,1,73.1-4.461l-.086.648H67.488a2.856,2.856,0,0,0,.379,1.953,1.8,1.8,0,0,0,1.551.836A3.007,3.007,0,0,0,71.73-2.148l.813.688a3.718,3.718,0,0,1-1.371,1.2A3.886,3.886,0,0,1,69.3.156Zm.9-7.586a2.066,2.066,0,0,0-1.527.594A4.22,4.22,0,0,0,67.637-5l4.109.008.031-.125a2.313,2.313,0,0,0-.316-1.637A1.488,1.488,0,0,0,70.2-7.43ZM81.6-10.5l-.359,2.047h1.539l-.2,1.117H81.051l-.883,5.258a1.833,1.833,0,0,0-.008.375.6.6,0,0,0,.664.609,4.05,4.05,0,0,0,.688-.078L81.4.008a3.847,3.847,0,0,1-1.031.141,1.476,1.476,0,0,1-1.266-.621A2.4,2.4,0,0,1,78.777-2.1l.859-5.234H78.145l.2-1.117h1.492l.359-2.047Zm5.953,1.891a3.047,3.047,0,0,1,1.82.578A3.285,3.285,0,0,1,90.492-6.48a4.8,4.8,0,0,1,.246,2.16l-.016.172a5.685,5.685,0,0,1-.734,2.23A4.309,4.309,0,0,1,88.473-.367a3.7,3.7,0,0,1-2.039.523,3.052,3.052,0,0,1-1.816-.578A3.21,3.21,0,0,1,83.5-1.953a4.931,4.931,0,0,1-.25-2.133,5.76,5.76,0,0,1,.711-2.359,4.409,4.409,0,0,1,1.527-1.621A3.652,3.652,0,0,1,87.551-8.609ZM84.676-4.078a4.8,4.8,0,0,0,0,1.023,2.507,2.507,0,0,0,.551,1.469,1.653,1.653,0,0,0,1.262.57,2.253,2.253,0,0,0,1.3-.348,2.919,2.919,0,0,0,1-1.121,4.721,4.721,0,0,0,.523-1.664,7.5,7.5,0,0,0,.023-1.211,2.6,2.6,0,0,0-.57-1.492A1.69,1.69,0,0,0,87.5-7.43a2.3,2.3,0,0,0-1.859.859,4.245,4.245,0,0,0-.945,2.313Zm11.445-.164a6.889,6.889,0,0,1,.746-2.4,3.9,3.9,0,0,1,1.359-1.508,3.151,3.151,0,0,1,1.754-.465A2.6,2.6,0,0,1,102.2-7.508l.281-.945h1.3L102.371-.18a4.113,4.113,0,0,1-1.312,2.59,3.7,3.7,0,0,1-2.68.926,3.8,3.8,0,0,1-1.645-.406A3.127,3.127,0,0,1,95.5,1.859l.8-.867a2.419,2.419,0,0,0,2.023,1.164,2.425,2.425,0,0,0,1.707-.562,2.9,2.9,0,0,0,.926-1.687l.156-.75a3.2,3.2,0,0,1-2.414,1A2.486,2.486,0,0,1,97.328-.27a2.589,2.589,0,0,1-.9-1.164,4.759,4.759,0,0,1-.352-1.7A8.734,8.734,0,0,1,96.121-4.242Zm1.367.8a2.974,2.974,0,0,0,.387,1.728,1.461,1.461,0,0,0,1.238.644,2.561,2.561,0,0,0,2.18-1.241l.664-3.878a1.776,1.776,0,0,0-1.7-1.2,2.194,2.194,0,0,0-1.887.936A4.878,4.878,0,0,0,97.5-3.84ZM109.668,0a1.893,1.893,0,0,1-.055-.445l.023-.445A3.465,3.465,0,0,1,107.168.156a2.526,2.526,0,0,1-1.816-.707,2.14,2.14,0,0,1-.637-1.73,2.6,2.6,0,0,1,1.176-2.1,5.005,5.005,0,0,1,2.887-.754l1.477.008.094-.672a1.545,1.545,0,0,0-.293-1.2,1.414,1.414,0,0,0-1.113-.457,2.181,2.181,0,0,0-1.285.355,1.513,1.513,0,0,0-.684.98l-1.422.008a2.266,2.266,0,0,1,.578-1.316,3.363,3.363,0,0,1,1.3-.891,4.215,4.215,0,0,1,1.648-.3,2.8,2.8,0,0,1,2.055.8,2.484,2.484,0,0,1,.617,2.043l-.687,4.188-.039.6a2.949,2.949,0,0,0,.094.852L111.105,0Zm-2.219-1.094a2.466,2.466,0,0,0,1.285-.324,3.254,3.254,0,0,0,1.043-.941l.3-1.742-1.07-.008a4.054,4.054,0,0,0-2.047.422,1.554,1.554,0,0,0-.8,1.2,1.21,1.21,0,0,0,.277.988A1.321,1.321,0,0,0,107.449-1.094Zm9.3-9.406-.359,2.047h1.539l-.2,1.117h-1.531l-.883,5.258a1.833,1.833,0,0,0-.008.375.6.6,0,0,0,.664.609,4.05,4.05,0,0,0,.688-.078l-.109,1.18a3.847,3.847,0,0,1-1.031.141,1.476,1.476,0,0,1-1.266-.621,2.4,2.4,0,0,1-.328-1.629l.859-5.234H113.3l.2-1.117h1.492l.359-2.047ZM121.824.156a3.048,3.048,0,0,1-2.469-1.164,4.006,4.006,0,0,1-.75-2.9l.039-.336a5.624,5.624,0,0,1,.746-2.3,4.339,4.339,0,0,1,1.5-1.566,3.491,3.491,0,0,1,1.906-.5,2.688,2.688,0,0,1,2.047.867,3.566,3.566,0,0,1,.813,2.266,6.62,6.62,0,0,1-.031,1.016l-.086.648h-5.523a2.856,2.856,0,0,0,.379,1.953,1.8,1.8,0,0,0,1.551.836,3.007,3.007,0,0,0,2.313-1.125l.813.688a3.718,3.718,0,0,1-1.371,1.2A3.886,3.886,0,0,1,121.824.156Zm.9-7.586a2.066,2.066,0,0,0-1.527.594A4.22,4.22,0,0,0,120.16-5l4.109.008.031-.125a2.313,2.313,0,0,0-.316-1.637A1.488,1.488,0,0,0,122.723-7.43ZM130.5-4.57A14.5,14.5,0,0,1,129.5-.965,10.841,10.841,0,0,1,127.781,1.9a7.163,7.163,0,0,1-2.223,1.777l-.219-.9Q128.02.766,128.918-3.7a16.834,16.834,0,0,0,.344-3.461q-.039-3.352-1.625-4.8l.367-.875a5.179,5.179,0,0,1,1.48,1.621,7.645,7.645,0,0,1,.891,2.352,12.043,12.043,0,0,1,.254,2.777,13.344,13.344,0,0,1-.117,1.43Z" transform="translate(2433 -7663)" fill="#fff"/>
    <g id="Trazado_237701" data-name="Trazado 237701" transform="translate(2469 -7905)" fill="#4dafaf">
      <path d="M 99 191.5 L 10 191.5 C 4.761690616607666 191.5 0.5 187.2383117675781 0.5 182 L 0.5 10 C 0.5 4.761690616607666 4.761690616607666 0.5 10 0.5 L 99 0.5 C 104.2383117675781 0.5 108.5 4.761690616607666 108.5 10 L 108.5 182 C 108.5 187.2383117675781 104.2383117675781 191.5 99 191.5 Z" stroke="none"/>
      <path d="M 10 1 C 5.037376403808594 1 1 5.037368774414062 1 10 L 1 182 C 1 186.9626312255859 5.037376403808594 191 10 191 L 99 191 C 103.9626235961914 191 108 186.9626312255859 108 182 L 108 10 C 108 5.037368774414062 103.9626235961914 1 99 1 L 10 1 M 10 0 L 99 0 C 104.5228500366211 0 109 4.477157592773438 109 10 L 109 182 C 109 187.5228576660156 104.5228500366211 192 99 192 L 10 192 C 4.477149963378906 192 0 187.5228576660156 0 182 L 0 10 C 0 4.477157592773438 4.477149963378906 0 10 0 Z" stroke="none" fill="#f6f6f6"/>
    </g>
    <path id="Trazado_237738" data-name="Trazado 237738" d="M0,0H0" transform="translate(1913 -7778.27)" fill="none" stroke="#000" stroke-linecap="round" stroke-width="1"/>
    <path id="Trazado_237722" data-name="Trazado 237722" d="M0,0H481.012" transform="translate(1916.992 -7778.27)" fill="none" stroke="#000" stroke-linecap="round" stroke-width="1" stroke-dasharray="0 3.992"/>
    <path id="Trazado_237723" data-name="Trazado 237723" d="M0,0H0" transform="translate(2400 -7778.27)" fill="none" stroke="#000" stroke-linecap="round" stroke-width="1"/>
    <path id="Trazado_237609" data-name="Trazado 237609" d="M585.015,131.413a2.077,2.077,0,1,1-2.077-2.077,2.077,2.077,0,0,1,2.077,2.077" transform="translate(1816 -7833.761)" fill="#fff"/>
    <path id="Trazado_237737" data-name="Trazado 237737" d="M0,0H1.512V23.307H0Z" transform="translate(2007.032 -7735.657)" fill="#d2d2d2"/>
    <path id="Trazado_237728" data-name="Trazado 237728" d="M0,0H1.512V23.307H0Z" transform="translate(2279.804 -7735.657)" fill="#d2d2d2"/>
    <path id="Trazado_237715" data-name="Trazado 237715" d="M0,0H1.512V22.663H0Z" transform="translate(2415.804 -7735.013)" fill="#d2d2d2"/>
    <path id="Trazado_237624" data-name="Trazado 237624" d="M107.265,48.186a51.443,51.443,0,0,1-102.835,0H2.958a52.914,52.914,0,0,0,105.779,0Z" transform="translate(1816 -7833.761)" fill="#d2d2d2"/>
    <path id="Trazado_237619" data-name="Trazado 237619" d="M243.5,48.186a51.444,51.444,0,0,1-102.836,0H139.2a52.914,52.914,0,0,0,105.779,0Z" transform="translate(1816 -7833.761)" fill="#d2d2d2"/>
    <path id="Trazado_237615" data-name="Trazado 237615" d="M379.74,48.186a51.443,51.443,0,0,1-102.835,0h-1.472a52.914,52.914,0,0,0,105.779,0Z" transform="translate(1816 -7833.761)" fill="#d2d2d2"/>
    <path id="Trazado_237611" data-name="Trazado 237611" d="M515.978,48.186a51.443,51.443,0,0,1-102.835,0h-1.472a52.914,52.914,0,0,0,105.779,0Z" transform="translate(1816 -7833.761)" fill="#d2d2d2"/>
    <path id="Trazado_237604" data-name="Trazado 237604" d="M652.215,48.186a51.443,51.443,0,0,1-102.835,0h-1.472a52.914,52.914,0,0,0,105.779,0Z" transform="translate(1816 -7833.761)" fill="#d2d2d2"/>
    <path id="Trazado_237622" data-name="Trazado 237622" d="M108.737,48.186a15.229,15.229,0,0,1,30.459,0h1.466a16.7,16.7,0,1,0-33.391,0Z" transform="translate(1816 -7833.761)" fill="#d2d2d2"/>
    <path id="Trazado_237618" data-name="Trazado 237618" d="M244.975,48.186a15.229,15.229,0,0,1,30.459,0H276.9a16.7,16.7,0,1,0-33.391,0Z" transform="translate(1816 -7833.761)" fill="#d2d2d2"/>
    <path id="Trazado_237614" data-name="Trazado 237614" d="M381.212,48.186a15.229,15.229,0,0,1,30.459,0h1.466a16.7,16.7,0,1,0-33.392,0Z" transform="translate(1816 -7833.761)" fill="#d2d2d2"/>
    <path id="Trazado_237610" data-name="Trazado 237610" d="M517.45,48.186a15.229,15.229,0,0,1,30.459,0h1.466a16.7,16.7,0,1,0-33.391,0Z" transform="translate(1816 -7833.761)" fill="#d2d2d2"/>
    <path id="Trazado_237741" data-name="Trazado 237741" d="M0,0H1.512V23.307H0Z" transform="translate(1871.076 -7735.657)" fill="#d2d2d2"/>
    <path id="Trazado_237733" data-name="Trazado 237733" d="M0,0H1.512V23.307H0Z" transform="translate(2143.567 -7735.657)" fill="#d2d2d2"/>
    <path id="Trazado_237627" data-name="Trazado 237627" d="M5.439,48.186a1.757,1.757,0,1,1-1.757-1.757,1.757,1.757,0,0,1,1.757,1.757" transform="translate(1816 -7833.761)" fill="#d2d2d2"/>
    <path id="Trazado_237606" data-name="Trazado 237606" d="M646.553,48.186a1.757,1.757,0,1,1-1.757-1.757,1.757,1.757,0,0,1,1.757,1.757" transform="translate(1816 -7833.761)" fill="#d2d2d2"/>
    <path id="Trazado_237625" data-name="Trazado 237625" d="M102.392,46.544A46.544,46.544,0,1,1,55.848,0a46.544,46.544,0,0,1,46.544,46.544" transform="translate(1816 -7833.761)" fill="#f6f6f4"/>
    <path id="Trazado_237626" data-name="Trazado 237626" d="M94.655,46.544A38.807,38.807,0,1,1,55.847,7.736,38.807,38.807,0,0,1,94.655,46.544" transform="translate(1816 -7833.761)" fill="#e5e5e5"/>
    <path id="Trazado_237620" data-name="Trazado 237620" d="M238.63,46.544A46.545,46.545,0,1,1,192.085,0,46.545,46.545,0,0,1,238.63,46.544" transform="translate(1816 -7833.761)" fill="#f6f6f4"/>
    <path id="Trazado_237621" data-name="Trazado 237621" d="M230.893,46.544A38.808,38.808,0,1,1,192.086,7.736a38.807,38.807,0,0,1,38.807,38.808" transform="translate(1816 -7833.761)" fill="#e5e5e5"/>
    <path id="Trazado_237616" data-name="Trazado 237616" d="M374.867,46.544A46.544,46.544,0,1,1,328.323,0a46.544,46.544,0,0,1,46.544,46.544" transform="translate(1816 -7833.761)" fill="#f6f6f4"/>
    <path id="Trazado_237617" data-name="Trazado 237617" d="M367.13,46.544A38.807,38.807,0,1,1,328.323,7.736,38.807,38.807,0,0,1,367.13,46.544" transform="translate(1816 -7833.761)" fill="#e5e5e5"/>
    <path id="Trazado_237612" data-name="Trazado 237612" d="M511.105,46.544A46.545,46.545,0,1,1,464.561,0a46.544,46.544,0,0,1,46.544,46.544" transform="translate(1816 -7833.761)" fill="#f6f6f4"/>
    <path id="Trazado_237613" data-name="Trazado 237613" d="M503.368,46.544A38.808,38.808,0,1,1,464.56,7.736a38.807,38.807,0,0,1,38.808,38.808" transform="translate(1816 -7833.761)" fill="#e5e5e5"/>
    <path id="Trazado_237607" data-name="Trazado 237607" d="M647.342,46.544A46.544,46.544,0,1,1,600.8,0a46.544,46.544,0,0,1,46.544,46.544" transform="translate(1816 -7833.761)" fill="#f6f6f4"/>
    <path id="Trazado_237608" data-name="Trazado 237608" d="M639.6,46.544A38.807,38.807,0,1,1,600.8,7.736,38.807,38.807,0,0,1,639.6,46.544" transform="translate(1816 -7833.761)" fill="#e5e5e5"/>
    <path id="Trazado_237602" data-name="Trazado 237602" d="M672,131.411a10,10,0,0,1-10,10H10a10,10,0,0,1,0-20H662a10,10,0,0,1,10,10" transform="translate(1816 -7833.761)" fill="#e5e5e5"/>
    <path id="Trazado_237623" data-name="Trazado 237623" d="M123.97,121.411v20H10a10,10,0,0,1,0-20Z" transform="translate(1816 -7833.761)" fill="#79bcd3"/>
    <path id="Trazado_237734" data-name="Trazado 237734" d="M0,0H136.23V20H0Z" transform="translate(1939.97 -7712.35)" fill="#639db7"/>
    <path id="Trazado_237729" data-name="Trazado 237729" d="M0,0H136.24V20H0Z" transform="translate(2076.2 -7712.35)" fill="#5588a3"/>
    <path id="Trazado_237716" data-name="Trazado 237716" d="M0,0H136.24V20H0Z" transform="translate(2212.44 -7712.35)" fill="#145374"/>
    <path id="Trazado_237603" data-name="Trazado 237603" d="M675.5,131.411a9.848,9.848,0,0,1-3,7.07,10.35,10.35,0,0,1-7.248,2.93H532.68v-20H665.253a10.132,10.132,0,0,1,10.252,10" transform="translate(1812.496 -7833.761)" fill="#00334e"/>
    <path id="Trazado_237740" data-name="Trazado 237740" d="M3.742-4.25H-3.773L-5.086,0h-5.859L-2.6-22.75H2.555L10.961,0H5.07Zm-6.2-4.234H2.43L-.023-16.375Z" transform="translate(1871 -7781)" fill="#12263f"/>
    <path id="Trazado_237736" data-name="Trazado 237736" d="M-8.6,0V-22.75H-.43q4.391,0,6.68,1.609a5.355,5.355,0,0,1,2.289,4.672,5.413,5.413,0,0,1-.812,3.016,4.735,4.735,0,0,1-2.391,1.844A4.8,4.8,0,0,1,8.07-9.859a5.088,5.088,0,0,1,.953,3.125A6.024,6.024,0,0,1,6.906-1.711Q4.789-.031.633,0Zm5.484-9.672v5.453H.477A3.418,3.418,0,0,0,2.758-4.9a2.379,2.379,0,0,0,.8-1.914A2.522,2.522,0,0,0,.727-9.672Zm0-3.594H-.258A4.062,4.062,0,0,0,2.3-13.924a2.335,2.335,0,0,0,.766-1.9A2.452,2.452,0,0,0,2.242-17.9,4.433,4.433,0,0,0-.43-18.531H-3.117Z" transform="translate(2010 -7781)" fill="#12263f"/>
    <path id="Trazado_237713" data-name="Trazado 237713" d="M0,0H672V141.411H0Z" transform="translate(1816 -7833.761)" fill="none"/>
    <path id="Trazado_237724" data-name="Trazado 237724" d="M0,0H0" transform="translate(2563 -7778.27)" fill="none" stroke="#000" stroke-linecap="round" stroke-width="1"/>
    <path id="Trazado_237725" data-name="Trazado 237725" d="M0,1.991,397.508,0" transform="translate(2566.992 -7780.261)" fill="none" stroke="#000" stroke-linecap="round" stroke-width="1" stroke-dasharray="0 3.992"/>
    <path id="Trazado_237702" data-name="Trazado 237702" d="M0,0H1.471V23.307H0Z" transform="translate(2651.837 -7735.657)" fill="#d2d2d2"/>
    <path id="Trazado_237703" data-name="Trazado 237703" d="M0,0H1.471V23.307H0Z" transform="translate(2917.191 -7735.657)" fill="#d2d2d2"/>
    <path id="Trazado_237599" data-name="Trazado 237599" d="M104.428,48.186C103.583,75.844,81.521,98,54.41,98S5.236,75.844,4.39,48.186H2.958C3.8,76.657,26.508,99.475,54.41,99.475s50.6-22.818,51.451-51.289Z" transform="translate(2465.919 -7833.761)" fill="#d2d2d2"/>
    <path id="Trazado_237592" data-name="Trazado 237592" d="M240.666,48.186C239.82,75.844,217.758,98,190.647,98s-49.174-22.159-50.02-49.817H139.2c.847,28.471,23.551,51.289,51.452,51.289s50.6-22.818,51.451-51.289Z" transform="translate(2462.215 -7833.761)" fill="#d2d2d2"/>
    <path id="Trazado_237583" data-name="Trazado 237583" d="M376.9,48.186C376.058,75.844,354,98,326.885,98s-49.174-22.159-50.02-49.817h-1.432c.846,28.471,23.55,51.289,51.452,51.289s50.6-22.818,51.451-51.289Z" transform="translate(2458.51 -7833.761)" fill="#d2d2d2"/>
    <path id="Trazado_237584" data-name="Trazado 237584" d="M513.141,48.186C512.3,75.844,490.234,98,463.123,98S413.948,75.844,413.1,48.186h-1.432c.846,28.471,23.55,51.289,51.452,51.289s50.6-22.818,51.451-51.289Z" transform="translate(2454.805 -7833.761)" fill="#d2d2d2"/>
    <path id="Trazado_237597" data-name="Trazado 237597" d="M108.7,48.186a14.821,14.821,0,1,1,29.631,0h1.426a16.248,16.248,0,1,0-32.483,0Z" transform="translate(2463.083 -7833.761)" fill="#d2d2d2"/>
    <path id="Trazado_237593" data-name="Trazado 237593" d="M244.935,48.186a14.821,14.821,0,1,1,29.631,0h1.425a16.248,16.248,0,1,0-32.483,0Z" transform="translate(2459.378 -7833.761)" fill="#d2d2d2"/>
    <path id="Trazado_237594" data-name="Trazado 237594" d="M381.172,48.186a14.821,14.821,0,1,1,29.631,0h1.426a16.248,16.248,0,1,0-32.484,0Z" transform="translate(2455.673 -7833.761)" fill="#d2d2d2"/>
    <path id="Trazado_237704" data-name="Trazado 237704" d="M0,0H1.471V23.307H0Z" transform="translate(2519.578 -7735.657)" fill="#d2d2d2"/>
    <path id="Trazado_237705" data-name="Trazado 237705" d="M0,0H1.471V23.307H0Z" transform="translate(2784.659 -7735.657)" fill="#d2d2d2"/>
    <path id="Trazado_237605" data-name="Trazado 237605" d="M5.343,48.186a1.733,1.733,0,0,1-1.709,1.757,1.758,1.758,0,0,1,0-3.514,1.733,1.733,0,0,1,1.709,1.757" transform="translate(2465.948 -7833.761)" fill="#d2d2d2"/>
    <path id="Trazado_237600" data-name="Trazado 237600" d="M99.86,46.544c0,25.706-20.272,46.544-45.278,46.544S9.3,72.25,9.3,46.544,29.575,0,54.582,0,99.86,20.838,99.86,46.544" transform="translate(2465.747 -7833.761)" fill="#f6f6f4"/>
    <path id="Trazado_237601" data-name="Trazado 237601" d="M92.544,46.544c0,21.433-16.9,38.807-37.753,38.807S17.04,67.977,17.04,46.544,33.942,7.736,54.792,7.736,92.544,25.111,92.544,46.544" transform="translate(2465.537 -7833.761)" fill="#e5e5e5"/>
    <path id="Trazado_237595" data-name="Trazado 237595" d="M236.1,46.544c0,25.706-20.273,46.544-45.279,46.544S145.54,72.25,145.54,46.544,165.813,0,190.819,0,236.1,20.838,236.1,46.544" transform="translate(2462.042 -7833.761)" fill="#f6f6f4"/>
    <path id="Trazado_237596" data-name="Trazado 237596" d="M228.782,46.544c0,21.433-16.9,38.807-37.752,38.807s-37.753-17.374-37.753-38.807,16.9-38.808,37.753-38.808,37.752,17.375,37.752,38.808" transform="translate(2461.832 -7833.761)" fill="#e5e5e5"/>
    <path id="Trazado_237585" data-name="Trazado 237585" d="M372.335,46.544c0,25.706-20.272,46.544-45.278,46.544S281.778,72.25,281.778,46.544,302.05,0,327.057,0s45.278,20.838,45.278,46.544" transform="translate(2458.337 -7833.761)" fill="#f6f6f4"/>
    <path id="Trazado_237586" data-name="Trazado 237586" d="M365.019,46.544c0,21.433-16.9,38.807-37.752,38.807s-37.753-17.374-37.753-38.807,16.9-38.808,37.753-38.808,37.752,17.375,37.752,38.808" transform="translate(2458.127 -7833.761)" fill="#e5e5e5"/>
    <path id="Trazado_237587" data-name="Trazado 237587" d="M508.574,46.544c0,25.706-20.272,46.544-45.278,46.544S418.016,72.25,418.016,46.544,438.288,0,463.3,0s45.278,20.838,45.278,46.544" transform="translate(2454.632 -7833.761)" fill="#f6f6f4"/>
    <path id="Trazado_237588" data-name="Trazado 237588" d="M501.257,46.544c0,21.433-16.9,38.807-37.753,38.807s-37.752-17.374-37.752-38.807S442.655,7.736,463.5,7.736s37.753,17.375,37.753,38.808" transform="translate(2454.422 -7833.761)" fill="#e5e5e5"/>
    <path id="Trazado_237589" data-name="Trazado 237589" d="M506.505,131.411a11.8,11.8,0,0,1-2.208,7.07,6.741,6.741,0,0,1-5.329,2.93H7.537c-4.161,0-7.537-4.48-7.537-10a11.8,11.8,0,0,1,2.208-7.07,6.741,6.741,0,0,1,5.329-2.93H498.968c4.161,0,7.537,4.48,7.537,10" transform="translate(2477.688 -7833.761)" fill="#e5e5e5"/>
    <path id="Trazado_237598" data-name="Trazado 237598" d="M126.31,121.411v20l-115.279.2c-.038-.088-.038-20.259,0-20.247Z" transform="translate(2460.288 -7833.761)" fill="#79bcd3"/>
    <path id="Trazado_237706" data-name="Trazado 237706" d="M0,0H158.124V20H0Z" transform="translate(2578 -7712.35)" fill="#639db7"/>
    <path id="Trazado_237707" data-name="Trazado 237707" d="M0,0H115.535V20H0Z" transform="translate(2736.124 -7712.35)" fill="#5588a3"/>
    <path id="Trazado_237590" data-name="Trazado 237590" d="M0,20Z" transform="translate(2851.659 -7712.35)" fill="#145374"/>
    <path id="Trazado_237591" data-name="Trazado 237591" d="M668.211,131.411a10.441,10.441,0,0,1-2.4,7.428c-2.062,2.594-4.493,2.738-7.331,2.572H532.68v-20h125.8c4.66-.244,5.42.651,7.394,2.693a11.83,11.83,0,0,1,2.334,7.307" transform="translate(2315.982 -7833.761)" fill="#00334e"/>
    <path id="Trazado_237708" data-name="Trazado 237708" d="M0,0H531.725V141.411H0Z" transform="translate(2468 -7833.761)" fill="none"/>
    <path id="Trazado_237739" data-name="Trazado 237739" d="M5.492-4.6H2.82V0H1.313V-11.375H5.078a4.457,4.457,0,0,1,2.957.875A3.148,3.148,0,0,1,9.07-7.953,3.062,3.062,0,0,1,8.5-6.1a3.428,3.428,0,0,1-1.6,1.18L9.57-.094V0H7.961ZM2.82-5.828h2.3A2.6,2.6,0,0,0,6.9-6.407a1.959,1.959,0,0,0,.66-1.55,2.062,2.062,0,0,0-.629-1.62,2.663,2.663,0,0,0-1.816-.571H2.82ZM14.453.156a3.693,3.693,0,0,1-2.8-1.129,4.19,4.19,0,0,1-1.078-3.02v-.266a5.073,5.073,0,0,1,.48-2.246A3.748,3.748,0,0,1,12.4-8.051a3.378,3.378,0,0,1,1.871-.559,3.166,3.166,0,0,1,2.563,1.086,4.7,4.7,0,0,1,.914,3.109v.6H12.023a3,3,0,0,0,.73,2.02,2.3,2.3,0,0,0,1.777.77,2.517,2.517,0,0,0,1.3-.312,3.259,3.259,0,0,0,.93-.828l.883.688A3.55,3.55,0,0,1,14.453.156Zm-.18-7.578a1.928,1.928,0,0,0-1.469.637A3.1,3.1,0,0,0,12.07-5H16.3v-.109a2.753,2.753,0,0,0-.594-1.707A1.815,1.815,0,0,0,14.273-7.422Zm8.539,6.4a2.082,2.082,0,0,0,1.352-.469A1.649,1.649,0,0,0,24.8-2.664h1.367a2.621,2.621,0,0,1-.5,1.383,3.293,3.293,0,0,1-1.23,1.047,3.55,3.55,0,0,1-1.629.391A3.482,3.482,0,0,1,20.066-1a4.59,4.59,0,0,1-1.02-3.152v-.242a5.089,5.089,0,0,1,.453-2.2,3.451,3.451,0,0,1,1.3-1.492,3.7,3.7,0,0,1,2-.531,3.39,3.39,0,0,1,2.363.852,3.043,3.043,0,0,1,1,2.211H24.8a1.992,1.992,0,0,0-.621-1.348A1.932,1.932,0,0,0,22.8-7.422a2.023,2.023,0,0,0-1.707.793,3.724,3.724,0,0,0-.605,2.293v.273a3.65,3.65,0,0,0,.6,2.25A2.033,2.033,0,0,0,22.813-1.023Zm10.2.188a3.07,3.07,0,0,1-2.477.992A2.628,2.628,0,0,1,28.48-.629a3.4,3.4,0,0,1-.715-2.324v-5.5h1.445v5.461q0,1.922,1.563,1.922a2.163,2.163,0,0,0,2.2-1.234V-8.453h1.445V0H33.047ZM40.7-7.156a4.331,4.331,0,0,0-.711-.055A1.9,1.9,0,0,0,38.063-6V0H36.617V-8.453h1.406l.023.977a2.251,2.251,0,0,1,2.016-1.133A1.477,1.477,0,0,1,40.7-8.5Zm6.25,4.914a1.064,1.064,0,0,0-.441-.91,4.249,4.249,0,0,0-1.539-.559,7.277,7.277,0,0,1-1.742-.562,2.479,2.479,0,0,1-.953-.781,1.869,1.869,0,0,1-.309-1.078,2.193,2.193,0,0,1,.879-1.758,3.432,3.432,0,0,1,2.246-.719,3.532,3.532,0,0,1,2.332.742,2.357,2.357,0,0,1,.895,1.9H46.867a1.3,1.3,0,0,0-.5-1.023,1.888,1.888,0,0,0-1.27-.43,1.976,1.976,0,0,0-1.234.344,1.082,1.082,0,0,0-.445.9.877.877,0,0,0,.414.789,5.1,5.1,0,0,0,1.5.508,7.8,7.8,0,0,1,1.754.578,2.558,2.558,0,0,1,1,.809A1.988,1.988,0,0,1,48.4-2.344a2.163,2.163,0,0,1-.906,1.816,3.8,3.8,0,0,1-2.352.684,4.257,4.257,0,0,1-1.8-.359,2.922,2.922,0,0,1-1.223-1A2.42,2.42,0,0,1,41.68-2.6h1.445a1.5,1.5,0,0,0,.582,1.152,2.258,2.258,0,0,0,1.434.426,2.331,2.331,0,0,0,1.316-.332A1.02,1.02,0,0,0,46.953-2.242ZM49.9-4.3a4.993,4.993,0,0,1,.488-2.234A3.643,3.643,0,0,1,51.746-8.07a3.7,3.7,0,0,1,1.988-.539,3.565,3.565,0,0,1,2.793,1.2,4.6,4.6,0,0,1,1.066,3.18v.1a5.036,5.036,0,0,1-.473,2.215A3.589,3.589,0,0,1,55.77-.391a3.743,3.743,0,0,1-2.02.547,3.556,3.556,0,0,1-2.785-1.2A4.575,4.575,0,0,1,49.9-4.2Zm1.453.172A3.616,3.616,0,0,0,52-1.875a2.088,2.088,0,0,0,1.746.852,2.075,2.075,0,0,0,1.75-.863A3.955,3.955,0,0,0,56.148-4.3a3.61,3.61,0,0,0-.66-2.254,2.1,2.1,0,0,0-1.754-.863,2.075,2.075,0,0,0-1.727.852A3.925,3.925,0,0,0,51.352-4.133ZM64.328-2.242a1.064,1.064,0,0,0-.441-.91,4.249,4.249,0,0,0-1.539-.559,7.277,7.277,0,0,1-1.742-.562,2.479,2.479,0,0,1-.953-.781,1.869,1.869,0,0,1-.309-1.078,2.193,2.193,0,0,1,.879-1.758,3.432,3.432,0,0,1,2.246-.719,3.532,3.532,0,0,1,2.332.742,2.357,2.357,0,0,1,.895,1.9H64.242a1.3,1.3,0,0,0-.5-1.023,1.888,1.888,0,0,0-1.27-.43,1.976,1.976,0,0,0-1.234.344,1.082,1.082,0,0,0-.445.9.877.877,0,0,0,.414.789,5.1,5.1,0,0,0,1.5.508,7.8,7.8,0,0,1,1.754.578,2.558,2.558,0,0,1,1,.809,1.988,1.988,0,0,1,.324,1.152,2.163,2.163,0,0,1-.906,1.816,3.8,3.8,0,0,1-2.352.684,4.257,4.257,0,0,1-1.8-.359,2.922,2.922,0,0,1-1.223-1A2.42,2.42,0,0,1,59.055-2.6H60.5a1.5,1.5,0,0,0,.582,1.152,2.258,2.258,0,0,0,1.434.426,2.331,2.331,0,0,0,1.316-.332A1.02,1.02,0,0,0,64.328-2.242Z" transform="translate(1841 -7697.35)" fill="#12263f"/>
    <path id="Trazado_237735" data-name="Trazado 237735" d="M7.75-5.258H2.82v4.031H8.547V0H1.32V-11.375H8.469v1.227H2.82v3.664H7.75Zm5.273-.109L14.9-8.453h1.688L13.82-4.273,16.672,0H15L13.047-3.164,11.094,0H9.414l2.852-4.273L9.5-8.453h1.672ZM25.258-4.133a5.062,5.062,0,0,1-.883,3.109A2.829,2.829,0,0,1,21.984.156,3.1,3.1,0,0,1,19.563-.82V3.25H18.117v-11.7h1.32l.07.938a2.977,2.977,0,0,1,2.453-1.094,2.882,2.882,0,0,1,2.41,1.148,5.117,5.117,0,0,1,.887,3.2ZM23.813-4.3A3.735,3.735,0,0,0,23.2-6.555a1.963,1.963,0,0,0-1.672-.828,2.125,2.125,0,0,0-1.969,1.164V-2.18a2.129,2.129,0,0,0,1.984,1.156A1.954,1.954,0,0,0,23.2-1.848,4.077,4.077,0,0,0,23.813-4.3ZM28.664,0H27.219V-12h1.445Zm1.93-4.3a4.993,4.993,0,0,1,.488-2.234A3.643,3.643,0,0,1,32.441-8.07a3.7,3.7,0,0,1,1.988-.539,3.565,3.565,0,0,1,2.793,1.2,4.6,4.6,0,0,1,1.066,3.18v.1a5.036,5.036,0,0,1-.473,2.215A3.589,3.589,0,0,1,36.465-.391a3.743,3.743,0,0,1-2.02.547,3.556,3.556,0,0,1-2.785-1.2A4.575,4.575,0,0,1,30.594-4.2Zm1.453.172A3.616,3.616,0,0,0,32.7-1.875a2.088,2.088,0,0,0,1.746.852,2.075,2.075,0,0,0,1.75-.863A3.955,3.955,0,0,0,36.844-4.3a3.61,3.61,0,0,0-.66-2.254,2.1,2.1,0,0,0-1.754-.863A2.075,2.075,0,0,0,32.7-6.57,3.925,3.925,0,0,0,32.047-4.133ZM42.063-10.5v2.047h1.578v1.117H42.063v5.249a1.173,1.173,0,0,0,.211.763.888.888,0,0,0,.719.254,3.5,3.5,0,0,0,.688-.094V0A4.215,4.215,0,0,1,42.57.156,1.8,1.8,0,0,1,41.109-.43a2.517,2.517,0,0,1-.492-1.664V-7.336H39.078V-8.453h1.539V-10.5ZM50.547,0a3.036,3.036,0,0,1-.2-.891A3.225,3.225,0,0,1,47.938.156a2.984,2.984,0,0,1-2.051-.707,2.287,2.287,0,0,1-.8-1.793,2.39,2.39,0,0,1,1-2.051,4.733,4.733,0,0,1,2.824-.73H50.32v-.664A1.623,1.623,0,0,0,49.867-7a1.821,1.821,0,0,0-1.336-.449,2.107,2.107,0,0,0-1.3.391,1.151,1.151,0,0,0-.523.945H45.258a2,2,0,0,1,.449-1.223,3.066,3.066,0,0,1,1.219-.934,4.1,4.1,0,0,1,1.691-.344,3.342,3.342,0,0,1,2.289.73,2.635,2.635,0,0,1,.859,2.012v3.891a4.757,4.757,0,0,0,.3,1.852V0Zm-2.4-1.1a2.54,2.54,0,0,0,1.289-.352,2.127,2.127,0,0,0,.883-.914V-4.1H49.188q-2.656,0-2.656,1.555a1.316,1.316,0,0,0,.453,1.063A1.742,1.742,0,0,0,48.148-1.1Zm9.273.078a2.082,2.082,0,0,0,1.352-.469,1.649,1.649,0,0,0,.641-1.172h1.367a2.621,2.621,0,0,1-.5,1.383,3.293,3.293,0,0,1-1.23,1.047,3.55,3.55,0,0,1-1.629.391A3.482,3.482,0,0,1,54.676-1a4.59,4.59,0,0,1-1.02-3.152v-.242a5.089,5.089,0,0,1,.453-2.2,3.451,3.451,0,0,1,1.3-1.492,3.7,3.7,0,0,1,2-.531,3.39,3.39,0,0,1,2.363.852,3.043,3.043,0,0,1,1,2.211H59.414a1.992,1.992,0,0,0-.621-1.348,1.932,1.932,0,0,0-1.379-.527,2.023,2.023,0,0,0-1.707.793A3.724,3.724,0,0,0,55.1-4.336v.273a3.65,3.65,0,0,0,.6,2.25A2.033,2.033,0,0,0,57.422-1.023ZM63.977,0H62.531V-8.453h1.445ZM62.414-10.7a.863.863,0,0,1,.215-.594.807.807,0,0,1,.637-.242.819.819,0,0,1,.641.242.854.854,0,0,1,.219.594.826.826,0,0,1-.219.586.834.834,0,0,1-.641.234.821.821,0,0,1-.637-.234A.834.834,0,0,1,62.414-10.7ZM65.906-4.3a4.993,4.993,0,0,1,.488-2.234A3.643,3.643,0,0,1,67.754-8.07a3.7,3.7,0,0,1,1.988-.539,3.565,3.565,0,0,1,2.793,1.2A4.6,4.6,0,0,1,73.6-4.234v.1a5.036,5.036,0,0,1-.473,2.215A3.589,3.589,0,0,1,71.777-.391a3.743,3.743,0,0,1-2.02.547,3.556,3.556,0,0,1-2.785-1.2A4.575,4.575,0,0,1,65.906-4.2Zm1.453.172a3.616,3.616,0,0,0,.652,2.258,2.088,2.088,0,0,0,1.746.852,2.075,2.075,0,0,0,1.75-.863A3.955,3.955,0,0,0,72.156-4.3a3.61,3.61,0,0,0-.66-2.254,2.1,2.1,0,0,0-1.754-.863,2.075,2.075,0,0,0-1.727.852A3.925,3.925,0,0,0,67.359-4.133ZM70.4-11.984h1.75l-2.094,2.3-1.164,0Zm6.383,3.531.047,1.063a3.08,3.08,0,0,1,2.531-1.219q2.68,0,2.7,3.023V0H80.617V-5.594A1.946,1.946,0,0,0,80.2-6.945a1.675,1.675,0,0,0-1.277-.437,2.086,2.086,0,0,0-1.234.375,2.546,2.546,0,0,0-.828.984V0H75.414V-8.453Z" transform="translate(1969.52 -7697.35)" fill="#12263f"/>
    <path id="Trazado_237730" data-name="Trazado 237730" d="M-46.2,0h-1.453V-9.633l-2.914,1.07V-9.875l4.141-1.555h.227Zm8.117-5.508a3.174,3.174,0,0,1-.141-.562,2.02,2.02,0,0,1-1.594.672,2,2,0,0,1-1.437-.484,1.7,1.7,0,0,1-.508-1.289,1.547,1.547,0,0,1,.652-1.336,3.436,3.436,0,0,1,2-.469h.844v-.411q0-1.066-.969-1.066a1.463,1.463,0,0,0-.848.215.71.71,0,0,0-.309.621l-1.258-.094a1.574,1.574,0,0,1,.672-1.312,2.812,2.812,0,0,1,1.742-.508,2.316,2.316,0,0,1,1.641.559,2.083,2.083,0,0,1,.6,1.605V-6.9a4.53,4.53,0,0,0,.2,1.391Zm-1.43-.969a1.639,1.639,0,0,0,.68-.156A1.987,1.987,0,0,0-38.266-7V-8.1h-.875a1.755,1.755,0,0,0-1,.253.751.751,0,0,0-.348.641Q-40.484-6.477-39.508-6.477Zm8.453,2.18a4.952,4.952,0,0,1,.922-3.129,2.915,2.915,0,0,1,2.414-1.184,2.932,2.932,0,0,1,2.352,1.016V-12h1.445V0H-25.25l-.07-.906A2.943,2.943,0,0,1-27.734.156a2.887,2.887,0,0,1-2.395-1.2,5.008,5.008,0,0,1-.926-3.141Zm1.445.164a3.749,3.749,0,0,0,.594,2.25,1.92,1.92,0,0,0,1.641.813A2.108,2.108,0,0,0-25.367-2.3V-6.187a2.125,2.125,0,0,0-1.992-1.2,1.929,1.929,0,0,0-1.656.82A4.128,4.128,0,0,0-29.609-4.133ZM-20.109,0h-1.445V-8.453h1.445Zm-1.562-10.7a.863.863,0,0,1,.215-.594.807.807,0,0,1,.637-.242.819.819,0,0,1,.641.242.854.854,0,0,1,.219.594.826.826,0,0,1-.219.586.834.834,0,0,1-.641.234.821.821,0,0,1-.637-.234A.834.834,0,0,1-21.672-10.7Zm8.8,8.453a1.064,1.064,0,0,0-.441-.91,4.249,4.249,0,0,0-1.539-.559A7.277,7.277,0,0,1-16.6-4.273a2.479,2.479,0,0,1-.953-.781,1.869,1.869,0,0,1-.309-1.078,2.193,2.193,0,0,1,.879-1.758,3.432,3.432,0,0,1,2.246-.719,3.532,3.532,0,0,1,2.332.742,2.357,2.357,0,0,1,.895,1.9h-1.453a1.3,1.3,0,0,0-.5-1.023,1.888,1.888,0,0,0-1.27-.43,1.976,1.976,0,0,0-1.234.344,1.082,1.082,0,0,0-.445.9A.877.877,0,0,0-16-5.391a5.1,5.1,0,0,0,1.5.508A7.8,7.8,0,0,1-12.75-4.3a2.558,2.558,0,0,1,1,.809,1.988,1.988,0,0,1,.324,1.152,2.163,2.163,0,0,1-.906,1.816,3.8,3.8,0,0,1-2.352.684,4.257,4.257,0,0,1-1.8-.359,2.922,2.922,0,0,1-1.223-1A2.42,2.42,0,0,1-18.148-2.6H-16.7a1.5,1.5,0,0,0,.582,1.152,2.258,2.258,0,0,0,1.434.426,2.331,2.331,0,0,0,1.316-.332A1.02,1.02,0,0,0-12.875-2.242ZM-7.586-10.5v2.047h1.578v1.117H-7.586v5.249a1.173,1.173,0,0,0,.211.763.888.888,0,0,0,.719.254,3.5,3.5,0,0,0,.688-.094V0A4.215,4.215,0,0,1-7.078.156,1.8,1.8,0,0,1-8.539-.43a2.517,2.517,0,0,1-.492-1.664V-7.336H-10.57V-8.453h1.539V-10.5ZM-.234-7.156a4.331,4.331,0,0,0-.711-.055A1.9,1.9,0,0,0-2.875-6V0H-4.32V-8.453h1.406l.023.977A2.251,2.251,0,0,1-.875-8.609,1.477,1.477,0,0,1-.234-8.5ZM2.664,0H1.219V-8.453H2.664ZM1.1-10.7a.863.863,0,0,1,.215-.594.807.807,0,0,1,.637-.242.819.819,0,0,1,.641.242.854.854,0,0,1,.219.594.826.826,0,0,1-.219.586.834.834,0,0,1-.641.234.821.821,0,0,1-.637-.234A.834.834,0,0,1,1.1-10.7ZM12.133-4.133a5.026,5.026,0,0,1-.891,3.113A2.846,2.846,0,0,1,8.852.156,2.947,2.947,0,0,1,6.375-.977L6.3,0H4.977V-12H6.422v4.477A2.93,2.93,0,0,1,8.836-8.609a2.863,2.863,0,0,1,2.418,1.164,5.177,5.177,0,0,1,.879,3.188ZM10.688-4.3a3.906,3.906,0,0,0-.57-2.281,1.888,1.888,0,0,0-1.641-.8A2.122,2.122,0,0,0,6.422-6.055V-2.4A2.181,2.181,0,0,0,8.492-1.07a1.878,1.878,0,0,0,1.617-.8A4.153,4.153,0,0,0,10.688-4.3ZM19.172-.836A3.07,3.07,0,0,1,16.7.156a2.628,2.628,0,0,1-2.059-.785,3.4,3.4,0,0,1-.715-2.324v-5.5h1.445v5.461q0,1.922,1.563,1.922a2.163,2.163,0,0,0,2.2-1.234V-8.453h1.445V0H19.2Zm6.992-.187a2.082,2.082,0,0,0,1.352-.469,1.649,1.649,0,0,0,.641-1.172h1.367a2.621,2.621,0,0,1-.5,1.383,3.293,3.293,0,0,1-1.23,1.047,3.55,3.55,0,0,1-1.629.391A3.482,3.482,0,0,1,23.418-1,4.59,4.59,0,0,1,22.4-4.148v-.242a5.089,5.089,0,0,1,.453-2.2,3.451,3.451,0,0,1,1.3-1.492,3.7,3.7,0,0,1,2-.531,3.39,3.39,0,0,1,2.363.852,3.043,3.043,0,0,1,1,2.211H28.156a1.992,1.992,0,0,0-.621-1.348,1.932,1.932,0,0,0-1.379-.527,2.023,2.023,0,0,0-1.707.793,3.724,3.724,0,0,0-.605,2.293v.273a3.65,3.65,0,0,0,.6,2.25A2.033,2.033,0,0,0,26.164-1.023ZM32.719,0H31.273V-8.453h1.445ZM31.156-10.7a.863.863,0,0,1,.215-.594.807.807,0,0,1,.637-.242.819.819,0,0,1,.641.242.854.854,0,0,1,.219.594.826.826,0,0,1-.219.586.834.834,0,0,1-.641.234.821.821,0,0,1-.637-.234A.834.834,0,0,1,31.156-10.7ZM34.648-4.3a4.993,4.993,0,0,1,.488-2.234A3.643,3.643,0,0,1,36.5-8.07a3.7,3.7,0,0,1,1.988-.539,3.565,3.565,0,0,1,2.793,1.2,4.6,4.6,0,0,1,1.066,3.18v.1a5.036,5.036,0,0,1-.473,2.215A3.589,3.589,0,0,1,40.52-.391,3.743,3.743,0,0,1,38.5.156a3.556,3.556,0,0,1-2.785-1.2A4.575,4.575,0,0,1,34.648-4.2Zm1.453.172a3.616,3.616,0,0,0,.652,2.258,2.088,2.088,0,0,0,1.746.852,2.075,2.075,0,0,0,1.75-.863A3.955,3.955,0,0,0,40.9-4.3a3.61,3.61,0,0,0-.66-2.254,2.1,2.1,0,0,0-1.754-.863,2.075,2.075,0,0,0-1.727.852A3.925,3.925,0,0,0,36.1-4.133Zm3.039-7.852h1.75L38.8-9.687l-1.164,0Zm6.383,3.531.047,1.063A3.08,3.08,0,0,1,48.1-8.609q2.68,0,2.7,3.023V0H49.359V-5.594a1.946,1.946,0,0,0-.418-1.352,1.675,1.675,0,0,0-1.277-.437,2.086,2.086,0,0,0-1.234.375,2.546,2.546,0,0,0-.828.984V0H44.156V-8.453Z" transform="translate(2143 -7696.35)" fill="#fff"/>
    <path id="Trazado_237726" data-name="Trazado 237726" d="M-47.258-10.148h-3.656V0h-1.492V-10.148h-3.648v-1.227h8.8ZM-42.3-7.156a4.331,4.331,0,0,0-.711-.055A1.9,1.9,0,0,0-44.937-6V0h-1.445V-8.453h1.406l.023.977a2.251,2.251,0,0,1,2.016-1.133A1.477,1.477,0,0,1-42.3-8.5ZM-36.062,0a3.036,3.036,0,0,1-.2-.891A3.225,3.225,0,0,1-38.672.156a2.984,2.984,0,0,1-2.051-.707,2.287,2.287,0,0,1-.8-1.793,2.39,2.39,0,0,1,1-2.051,4.733,4.733,0,0,1,2.824-.73h1.406v-.664A1.623,1.623,0,0,0-36.742-7a1.821,1.821,0,0,0-1.336-.449,2.107,2.107,0,0,0-1.3.391,1.151,1.151,0,0,0-.523.945h-1.453A2,2,0,0,1-40.9-7.332a3.066,3.066,0,0,1,1.219-.934,4.1,4.1,0,0,1,1.691-.344,3.342,3.342,0,0,1,2.289.73,2.635,2.635,0,0,1,.859,2.012v3.891a4.757,4.757,0,0,0,.3,1.852V0Zm-2.4-1.1a2.54,2.54,0,0,0,1.289-.352,2.127,2.127,0,0,0,.883-.914V-4.1h-1.133q-2.656,0-2.656,1.555a1.316,1.316,0,0,0,.453,1.063A1.742,1.742,0,0,0-38.461-1.1Zm7.25-7.352.047,1.063a3.08,3.08,0,0,1,2.531-1.219q2.68,0,2.7,3.023V0h-1.445V-5.594a1.946,1.946,0,0,0-.418-1.352,1.675,1.675,0,0,0-1.277-.437,2.086,2.086,0,0,0-1.234.375,2.546,2.546,0,0,0-.828.984V0h-1.445V-8.453Zm12.383,6.211a1.064,1.064,0,0,0-.441-.91,4.249,4.249,0,0,0-1.539-.559,7.277,7.277,0,0,1-1.742-.562,2.479,2.479,0,0,1-.953-.781,1.869,1.869,0,0,1-.309-1.078,2.193,2.193,0,0,1,.879-1.758,3.432,3.432,0,0,1,2.246-.719,3.532,3.532,0,0,1,2.332.742,2.357,2.357,0,0,1,.895,1.9h-1.453a1.3,1.3,0,0,0-.5-1.023,1.888,1.888,0,0,0-1.27-.43,1.976,1.976,0,0,0-1.234.344,1.082,1.082,0,0,0-.445.9.877.877,0,0,0,.414.789,5.1,5.1,0,0,0,1.5.508A7.8,7.8,0,0,1-18.7-4.3a2.558,2.558,0,0,1,1,.809,1.988,1.988,0,0,1,.324,1.152,2.163,2.163,0,0,1-.906,1.816,3.8,3.8,0,0,1-2.352.684,4.257,4.257,0,0,1-1.8-.359,2.922,2.922,0,0,1-1.223-1A2.42,2.42,0,0,1-24.1-2.6h1.445a1.5,1.5,0,0,0,.582,1.152,2.258,2.258,0,0,0,1.434.426,2.331,2.331,0,0,0,1.316-.332A1.02,1.02,0,0,0-18.828-2.242ZM-14.789,0V-7.336h-1.336V-8.453h1.336V-9.32a2.878,2.878,0,0,1,.727-2.1,2.745,2.745,0,0,1,2.055-.742,3.816,3.816,0,0,1,.992.132l-.078,1.165a4.151,4.151,0,0,0-.781-.07,1.41,1.41,0,0,0-1.086.411,1.669,1.669,0,0,0-.383,1.18v.893h1.8v1.117h-1.8V0Zm4.461-4.3A4.993,4.993,0,0,1-9.84-6.539,3.643,3.643,0,0,1-8.48-8.07a3.7,3.7,0,0,1,1.988-.539A3.565,3.565,0,0,1-3.7-7.414a4.6,4.6,0,0,1,1.066,3.18v.1a5.036,5.036,0,0,1-.473,2.215A3.589,3.589,0,0,1-4.457-.391a3.743,3.743,0,0,1-2.02.547,3.556,3.556,0,0,1-2.785-1.2A4.575,4.575,0,0,1-10.328-4.2Zm1.453.172a3.616,3.616,0,0,0,.652,2.258,2.088,2.088,0,0,0,1.746.852,2.075,2.075,0,0,0,1.75-.863A3.955,3.955,0,0,0-4.078-4.3a3.61,3.61,0,0,0-.66-2.254,2.1,2.1,0,0,0-1.754-.863,2.075,2.075,0,0,0-1.727.852A3.925,3.925,0,0,0-8.875-4.133ZM3.266-7.156a4.331,4.331,0,0,0-.711-.055A1.9,1.9,0,0,0,.625-6V0H-.82V-8.453H.586l.023.977A2.251,2.251,0,0,1,2.625-8.609a1.477,1.477,0,0,1,.641.109Zm2.688-1.3.039.938A3.122,3.122,0,0,1,8.5-8.609,2.417,2.417,0,0,1,10.914-7.25a3.2,3.2,0,0,1,1.1-.984,3.242,3.242,0,0,1,1.6-.375q2.781,0,2.828,2.945V0H14.992V-5.578a1.941,1.941,0,0,0-.414-1.355,1.823,1.823,0,0,0-1.391-.449,1.916,1.916,0,0,0-1.336.48,1.949,1.949,0,0,0-.617,1.293V0H9.781V-5.539a1.613,1.613,0,0,0-1.8-1.844A1.934,1.934,0,0,0,6.031-6.172V0H4.586V-8.453ZM23.836,0a3.036,3.036,0,0,1-.2-.891A3.225,3.225,0,0,1,21.227.156a2.984,2.984,0,0,1-2.051-.707,2.287,2.287,0,0,1-.8-1.793,2.39,2.39,0,0,1,1-2.051,4.733,4.733,0,0,1,2.824-.73h1.406v-.664A1.623,1.623,0,0,0,23.156-7a1.821,1.821,0,0,0-1.336-.449,2.108,2.108,0,0,0-1.3.391A1.151,1.151,0,0,0,20-6.109H18.547A2,2,0,0,1,19-7.332a3.066,3.066,0,0,1,1.219-.934,4.1,4.1,0,0,1,1.691-.344,3.342,3.342,0,0,1,2.289.73,2.635,2.635,0,0,1,.859,2.012v3.891a4.757,4.757,0,0,0,.3,1.852V0Zm-2.4-1.1a2.54,2.54,0,0,0,1.289-.352,2.127,2.127,0,0,0,.883-.914V-4.1H22.477q-2.656,0-2.656,1.555a1.316,1.316,0,0,0,.453,1.063A1.742,1.742,0,0,0,21.438-1.1Zm9.273.078a2.082,2.082,0,0,0,1.352-.469A1.649,1.649,0,0,0,32.7-2.664H34.07a2.621,2.621,0,0,1-.5,1.383A3.293,3.293,0,0,1,32.34-.234a3.55,3.55,0,0,1-1.629.391A3.482,3.482,0,0,1,27.965-1a4.59,4.59,0,0,1-1.02-3.152v-.242a5.089,5.089,0,0,1,.453-2.2,3.451,3.451,0,0,1,1.3-1.492,3.7,3.7,0,0,1,2-.531,3.39,3.39,0,0,1,2.363.852,3.043,3.043,0,0,1,1,2.211H32.7a1.992,1.992,0,0,0-.621-1.348A1.932,1.932,0,0,0,30.7-7.422,2.023,2.023,0,0,0,29-6.629a3.724,3.724,0,0,0-.605,2.293v.273a3.65,3.65,0,0,0,.6,2.25A2.033,2.033,0,0,0,30.711-1.023ZM37.266,0H35.82V-8.453h1.445ZM35.7-10.7a.863.863,0,0,1,.215-.594.807.807,0,0,1,.637-.242.819.819,0,0,1,.641.242.854.854,0,0,1,.219.594.826.826,0,0,1-.219.586.834.834,0,0,1-.641.234.821.821,0,0,1-.637-.234A.834.834,0,0,1,35.7-10.7ZM39.2-4.3a4.993,4.993,0,0,1,.488-2.234A3.643,3.643,0,0,1,41.043-8.07a3.7,3.7,0,0,1,1.988-.539,3.565,3.565,0,0,1,2.793,1.2,4.6,4.6,0,0,1,1.066,3.18v.1a5.036,5.036,0,0,1-.473,2.215A3.589,3.589,0,0,1,45.066-.391a3.743,3.743,0,0,1-2.02.547,3.556,3.556,0,0,1-2.785-1.2A4.575,4.575,0,0,1,39.2-4.2Zm1.453.172A3.616,3.616,0,0,0,41.3-1.875a2.088,2.088,0,0,0,1.746.852,2.075,2.075,0,0,0,1.75-.863A3.955,3.955,0,0,0,45.445-4.3a3.61,3.61,0,0,0-.66-2.254,2.1,2.1,0,0,0-1.754-.863A2.075,2.075,0,0,0,41.3-6.57,3.925,3.925,0,0,0,40.648-4.133Zm3.039-7.852h1.75l-2.094,2.3-1.164,0ZM50.07-8.453l.047,1.063a3.08,3.08,0,0,1,2.531-1.219q2.68,0,2.7,3.023V0H53.906V-5.594a1.946,1.946,0,0,0-.418-1.352,1.675,1.675,0,0,0-1.277-.437,2.086,2.086,0,0,0-1.234.375,2.546,2.546,0,0,0-.828.984V0H48.7V-8.453Z" transform="translate(2279.52 -7696.35)" fill="#fff"/>
    <path id="Trazado_237714" data-name="Trazado 237714" d="M-49.516,0h-7.453V-1.039l3.938-4.375a9.355,9.355,0,0,0,1.207-1.613,2.693,2.693,0,0,0,.332-1.285,2.041,2.041,0,0,0-.539-1.461,1.885,1.885,0,0,0-1.437-.57,2.232,2.232,0,0,0-1.676.613,2.343,2.343,0,0,0-.6,1.707h-1.445a3.355,3.355,0,0,1,1.012-2.539,3.751,3.751,0,0,1,2.707-.969,3.6,3.6,0,0,1,2.508.832,2.838,2.838,0,0,1,.922,2.215q0,1.68-2.141,4l-3.047,3.3h5.711Zm1.328-4.3a4.952,4.952,0,0,1,.922-3.129,2.915,2.915,0,0,1,2.414-1.184A2.932,2.932,0,0,1-42.5-7.594V-12h1.445V0h-1.328l-.07-.906A2.943,2.943,0,0,1-44.867.156a2.887,2.887,0,0,1-2.395-1.2,5.008,5.008,0,0,1-.926-3.141Zm1.445.164a3.749,3.749,0,0,0,.594,2.25,1.92,1.92,0,0,0,1.641.813A2.108,2.108,0,0,0-42.5-2.3V-6.187a2.125,2.125,0,0,0-1.992-1.2,1.929,1.929,0,0,0-1.656.82A4.128,4.128,0,0,0-46.742-4.133ZM-33.594,0a3.036,3.036,0,0,1-.2-.891A3.225,3.225,0,0,1-36.2.156a2.984,2.984,0,0,1-2.051-.707,2.287,2.287,0,0,1-.8-1.793,2.39,2.39,0,0,1,1-2.051,4.733,4.733,0,0,1,2.824-.73h1.406v-.664A1.623,1.623,0,0,0-34.273-7a1.821,1.821,0,0,0-1.336-.449,2.107,2.107,0,0,0-1.3.391,1.151,1.151,0,0,0-.523.945h-1.453a2,2,0,0,1,.449-1.223,3.066,3.066,0,0,1,1.219-.934,4.1,4.1,0,0,1,1.691-.344,3.342,3.342,0,0,1,2.289.73,2.635,2.635,0,0,1,.859,2.012v3.891a4.757,4.757,0,0,0,.3,1.852V0Zm-2.4-1.1A2.54,2.54,0,0,0-34.7-1.453a2.127,2.127,0,0,0,.883-.914V-4.1h-1.133q-2.656,0-2.656,1.555a1.316,1.316,0,0,0,.453,1.063A1.742,1.742,0,0,0-35.992-1.1ZM-25.922,0V-11.375h3.211a5.169,5.169,0,0,1,2.625.656,4.438,4.438,0,0,1,1.762,1.867A6.078,6.078,0,0,1-17.7-6.07v.727a6.1,6.1,0,0,1-.621,2.82A4.369,4.369,0,0,1-20.09-.664,5.5,5.5,0,0,1-22.773,0Zm1.5-10.148v8.922h1.578a3.434,3.434,0,0,0,2.7-1.079,4.458,4.458,0,0,0,.965-3.073v-.665a4.529,4.529,0,0,0-.91-3.014,3.239,3.239,0,0,0-2.582-1.091ZM-14.086,0h-1.445V-8.453h1.445Zm-1.562-10.7a.863.863,0,0,1,.215-.594.807.807,0,0,1,.637-.242.819.819,0,0,1,.641.242.854.854,0,0,1,.219.594.826.826,0,0,1-.219.586.834.834,0,0,1-.641.234.821.821,0,0,1-.637-.234A.834.834,0,0,1-15.648-10.7Zm8.8,8.453a1.064,1.064,0,0,0-.441-.91,4.249,4.249,0,0,0-1.539-.559,7.277,7.277,0,0,1-1.742-.562,2.479,2.479,0,0,1-.953-.781,1.869,1.869,0,0,1-.309-1.078,2.193,2.193,0,0,1,.879-1.758,3.432,3.432,0,0,1,2.246-.719,3.532,3.532,0,0,1,2.332.742,2.357,2.357,0,0,1,.895,1.9H-6.937a1.3,1.3,0,0,0-.5-1.023,1.888,1.888,0,0,0-1.27-.43,1.976,1.976,0,0,0-1.234.344,1.082,1.082,0,0,0-.445.9.877.877,0,0,0,.414.789,5.1,5.1,0,0,0,1.5.508A7.8,7.8,0,0,1-6.727-4.3a2.558,2.558,0,0,1,1,.809,1.988,1.988,0,0,1,.324,1.152A2.163,2.163,0,0,1-6.312-.527,3.8,3.8,0,0,1-8.664.156a4.257,4.257,0,0,1-1.8-.359,2.922,2.922,0,0,1-1.223-1A2.42,2.42,0,0,1-12.125-2.6h1.445A1.5,1.5,0,0,0-10.1-1.449a2.258,2.258,0,0,0,1.434.426,2.331,2.331,0,0,0,1.316-.332A1.02,1.02,0,0,0-6.852-2.242ZM-1.562-10.5v2.047H.016v1.117H-1.562v5.249a1.173,1.173,0,0,0,.211.763.888.888,0,0,0,.719.254,3.5,3.5,0,0,0,.688-.094V0A4.215,4.215,0,0,1-1.055.156,1.8,1.8,0,0,1-2.516-.43a2.517,2.517,0,0,1-.492-1.664V-7.336H-4.547V-8.453h1.539V-10.5ZM5.789-7.156a4.331,4.331,0,0,0-.711-.055A1.9,1.9,0,0,0,3.148-6V0H1.7V-8.453H3.109l.023.977A2.251,2.251,0,0,1,5.148-8.609a1.477,1.477,0,0,1,.641.109ZM8.688,0H7.242V-8.453H8.688ZM7.125-10.7a.863.863,0,0,1,.215-.594.807.807,0,0,1,.637-.242.819.819,0,0,1,.641.242.854.854,0,0,1,.219.594.826.826,0,0,1-.219.586.834.834,0,0,1-.641.234.821.821,0,0,1-.637-.234A.834.834,0,0,1,7.125-10.7ZM18.156-4.133a5.026,5.026,0,0,1-.891,3.113A2.846,2.846,0,0,1,14.875.156,2.947,2.947,0,0,1,12.4-.977L12.328,0H11V-12h1.445v4.477a2.93,2.93,0,0,1,2.414-1.086,2.863,2.863,0,0,1,2.418,1.164,5.177,5.177,0,0,1,.879,3.188ZM16.711-4.3a3.906,3.906,0,0,0-.57-2.281,1.888,1.888,0,0,0-1.641-.8,2.122,2.122,0,0,0-2.055,1.328V-2.4a2.181,2.181,0,0,0,2.07,1.328,1.878,1.878,0,0,0,1.617-.8A4.153,4.153,0,0,0,16.711-4.3ZM25.2-.836a3.07,3.07,0,0,1-2.477.992A2.628,2.628,0,0,1,20.66-.629a3.4,3.4,0,0,1-.715-2.324v-5.5h1.445v5.461q0,1.922,1.563,1.922a2.163,2.163,0,0,0,2.2-1.234V-8.453H26.6V0H25.227Zm6.992-.187a2.082,2.082,0,0,0,1.352-.469,1.649,1.649,0,0,0,.641-1.172h1.367a2.621,2.621,0,0,1-.5,1.383,3.293,3.293,0,0,1-1.23,1.047,3.55,3.55,0,0,1-1.629.391A3.482,3.482,0,0,1,29.441-1a4.59,4.59,0,0,1-1.02-3.152v-.242a5.089,5.089,0,0,1,.453-2.2,3.451,3.451,0,0,1,1.3-1.492,3.7,3.7,0,0,1,2-.531,3.39,3.39,0,0,1,2.363.852,3.043,3.043,0,0,1,1,2.211H34.18a1.992,1.992,0,0,0-.621-1.348,1.932,1.932,0,0,0-1.379-.527,2.023,2.023,0,0,0-1.707.793,3.724,3.724,0,0,0-.605,2.293v.273a3.65,3.65,0,0,0,.6,2.25A2.033,2.033,0,0,0,32.188-1.023ZM38.742,0H37.3V-8.453h1.445ZM37.18-10.7a.863.863,0,0,1,.215-.594.807.807,0,0,1,.637-.242.819.819,0,0,1,.641.242.854.854,0,0,1,.219.594.826.826,0,0,1-.219.586.834.834,0,0,1-.641.234.821.821,0,0,1-.637-.234A.834.834,0,0,1,37.18-10.7ZM40.672-4.3a4.993,4.993,0,0,1,.488-2.234A3.643,3.643,0,0,1,42.52-8.07a3.7,3.7,0,0,1,1.988-.539,3.565,3.565,0,0,1,2.793,1.2,4.6,4.6,0,0,1,1.066,3.18v.1a5.036,5.036,0,0,1-.473,2.215A3.589,3.589,0,0,1,46.543-.391a3.743,3.743,0,0,1-2.02.547,3.556,3.556,0,0,1-2.785-1.2A4.575,4.575,0,0,1,40.672-4.2Zm1.453.172a3.616,3.616,0,0,0,.652,2.258,2.088,2.088,0,0,0,1.746.852,2.075,2.075,0,0,0,1.75-.863A3.955,3.955,0,0,0,46.922-4.3a3.61,3.61,0,0,0-.66-2.254,2.1,2.1,0,0,0-1.754-.863,2.075,2.075,0,0,0-1.727.852A3.925,3.925,0,0,0,42.125-4.133Zm3.039-7.852h1.75l-2.094,2.3-1.164,0Zm6.383,3.531.047,1.063a3.08,3.08,0,0,1,2.531-1.219q2.68,0,2.7,3.023V0H55.383V-5.594a1.946,1.946,0,0,0-.418-1.352,1.675,1.675,0,0,0-1.277-.437,2.086,2.086,0,0,0-1.234.375,2.546,2.546,0,0,0-.828.984V0H50.18V-8.453Z" transform="translate(2409.52 -7696.35)" fill="#fff"/>
    <path id="Trazado_237709" data-name="Trazado 237709" d="M2.82-4.453V0H1.32V-11.375h4.2a4.215,4.215,0,0,1,2.926.953A3.231,3.231,0,0,1,9.5-7.9,3.189,3.189,0,0,1,8.465-5.348,4.4,4.4,0,0,1,5.5-4.453Zm0-1.227h2.7a2.7,2.7,0,0,0,1.844-.567A2.075,2.075,0,0,0,8-7.887a2.143,2.143,0,0,0-.641-1.628A2.525,2.525,0,0,0,5.6-10.148H2.82ZM15.273-7.156a4.331,4.331,0,0,0-.711-.055A1.9,1.9,0,0,0,12.633-6V0H11.188V-8.453h1.406l.023.977a2.251,2.251,0,0,1,2.016-1.133,1.477,1.477,0,0,1,.641.109ZM16.063-4.3a4.993,4.993,0,0,1,.488-2.234A3.643,3.643,0,0,1,17.91-8.07,3.7,3.7,0,0,1,19.9-8.609a3.565,3.565,0,0,1,2.793,1.2,4.6,4.6,0,0,1,1.066,3.18v.1a5.036,5.036,0,0,1-.473,2.215A3.589,3.589,0,0,1,21.934-.391a3.743,3.743,0,0,1-2.02.547,3.556,3.556,0,0,1-2.785-1.2A4.575,4.575,0,0,1,16.063-4.2Zm1.453.172a3.616,3.616,0,0,0,.652,2.258,2.088,2.088,0,0,0,1.746.852,2.075,2.075,0,0,0,1.75-.863A3.955,3.955,0,0,0,22.313-4.3a3.61,3.61,0,0,0-.66-2.254A2.1,2.1,0,0,0,19.9-7.422a2.075,2.075,0,0,0-1.727.852A3.925,3.925,0,0,0,17.516-4.133Zm7.7-.164a4.952,4.952,0,0,1,.922-3.129,2.915,2.915,0,0,1,2.414-1.184,2.932,2.932,0,0,1,2.352,1.016V-12h1.445V0H31.023l-.07-.906A2.943,2.943,0,0,1,28.539.156a2.887,2.887,0,0,1-2.395-1.2,5.008,5.008,0,0,1-.926-3.141Zm1.445.164a3.749,3.749,0,0,0,.594,2.25A1.92,1.92,0,0,0,28.9-1.07,2.108,2.108,0,0,0,30.906-2.3V-6.187a2.125,2.125,0,0,0-1.992-1.2,1.929,1.929,0,0,0-1.656.82A4.128,4.128,0,0,0,26.664-4.133Zm13.148,3.3a3.07,3.07,0,0,1-2.477.992,2.628,2.628,0,0,1-2.059-.785,3.4,3.4,0,0,1-.715-2.324v-5.5h1.445v5.461q0,1.922,1.563,1.922a2.163,2.163,0,0,0,2.2-1.234V-8.453h1.445V0H39.844ZM46.8-1.023a2.082,2.082,0,0,0,1.352-.469A1.649,1.649,0,0,0,48.8-2.664h1.367a2.621,2.621,0,0,1-.5,1.383,3.293,3.293,0,0,1-1.23,1.047A3.55,3.55,0,0,1,46.8.156,3.482,3.482,0,0,1,44.059-1a4.59,4.59,0,0,1-1.02-3.152v-.242a5.089,5.089,0,0,1,.453-2.2,3.451,3.451,0,0,1,1.3-1.492,3.7,3.7,0,0,1,2-.531,3.39,3.39,0,0,1,2.363.852,3.043,3.043,0,0,1,1,2.211H48.8a1.992,1.992,0,0,0-.621-1.348A1.932,1.932,0,0,0,46.8-7.422a2.023,2.023,0,0,0-1.707.793,3.724,3.724,0,0,0-.605,2.293v.273a3.65,3.65,0,0,0,.6,2.25A2.033,2.033,0,0,0,46.8-1.023Zm8.375,0a2.082,2.082,0,0,0,1.352-.469,1.649,1.649,0,0,0,.641-1.172h1.367a2.621,2.621,0,0,1-.5,1.383,3.293,3.293,0,0,1-1.23,1.047A3.55,3.55,0,0,1,55.18.156,3.482,3.482,0,0,1,52.434-1a4.59,4.59,0,0,1-1.02-3.152v-.242a5.089,5.089,0,0,1,.453-2.2,3.451,3.451,0,0,1,1.3-1.492,3.7,3.7,0,0,1,2-.531,3.39,3.39,0,0,1,2.363.852,3.043,3.043,0,0,1,1,2.211H57.172a1.992,1.992,0,0,0-.621-1.348,1.932,1.932,0,0,0-1.379-.527,2.023,2.023,0,0,0-1.707.793,3.724,3.724,0,0,0-.605,2.293v.273a3.65,3.65,0,0,0,.6,2.25A2.033,2.033,0,0,0,55.18-1.023ZM61.734,0H60.289V-8.453h1.445ZM60.172-10.7a.863.863,0,0,1,.215-.594.807.807,0,0,1,.637-.242.819.819,0,0,1,.641.242.854.854,0,0,1,.219.594.826.826,0,0,1-.219.586.834.834,0,0,1-.641.234.821.821,0,0,1-.637-.234A.834.834,0,0,1,60.172-10.7ZM63.664-4.3a4.993,4.993,0,0,1,.488-2.234A3.643,3.643,0,0,1,65.512-8.07,3.7,3.7,0,0,1,67.5-8.609a3.565,3.565,0,0,1,2.793,1.2,4.6,4.6,0,0,1,1.066,3.18v.1a5.036,5.036,0,0,1-.473,2.215A3.589,3.589,0,0,1,69.535-.391a3.743,3.743,0,0,1-2.02.547,3.556,3.556,0,0,1-2.785-1.2A4.575,4.575,0,0,1,63.664-4.2Zm1.453.172a3.616,3.616,0,0,0,.652,2.258,2.088,2.088,0,0,0,1.746.852,2.075,2.075,0,0,0,1.75-.863A3.955,3.955,0,0,0,69.914-4.3a3.61,3.61,0,0,0-.66-2.254A2.1,2.1,0,0,0,67.5-7.422a2.075,2.075,0,0,0-1.727.852A3.925,3.925,0,0,0,65.117-4.133Zm3.039-7.852h1.75l-2.094,2.3-1.164,0Zm6.383,3.531.047,1.063a3.08,3.08,0,0,1,2.531-1.219q2.68,0,2.7,3.023V0H78.375V-5.594a1.946,1.946,0,0,0-.418-1.352,1.675,1.675,0,0,0-1.277-.437,2.086,2.086,0,0,0-1.234.375,2.546,2.546,0,0,0-.828.984V0H73.172V-8.453Z" transform="translate(2485 -7696.35)" fill="#00334e"/>
    <path id="Trazado_237710" data-name="Trazado 237710" d="M-66.812,0V-11.375H-63.6a5.169,5.169,0,0,1,2.625.656,4.438,4.438,0,0,1,1.762,1.867,6.078,6.078,0,0,1,.629,2.781v.727a6.1,6.1,0,0,1-.621,2.82A4.369,4.369,0,0,1-60.98-.664,5.5,5.5,0,0,1-63.664,0Zm1.5-10.148v8.922h1.578a3.434,3.434,0,0,0,2.7-1.079,4.458,4.458,0,0,0,.965-3.073v-.665a4.529,4.529,0,0,0-.91-3.014,3.239,3.239,0,0,0-2.582-1.091ZM-54.977,0h-1.445V-8.453h1.445Zm-1.562-10.7a.863.863,0,0,1,.215-.594.807.807,0,0,1,.637-.242.819.819,0,0,1,.641.242.854.854,0,0,1,.219.594.826.826,0,0,1-.219.586.834.834,0,0,1-.641.234.821.821,0,0,1-.637-.234A.834.834,0,0,1-56.539-10.7Zm8.8,8.453a1.064,1.064,0,0,0-.441-.91,4.249,4.249,0,0,0-1.539-.559,7.277,7.277,0,0,1-1.742-.562,2.479,2.479,0,0,1-.953-.781,1.869,1.869,0,0,1-.309-1.078,2.193,2.193,0,0,1,.879-1.758A3.432,3.432,0,0,1-49.6-8.609a3.532,3.532,0,0,1,2.332.742,2.357,2.357,0,0,1,.895,1.9h-1.453a1.3,1.3,0,0,0-.5-1.023,1.888,1.888,0,0,0-1.27-.43,1.976,1.976,0,0,0-1.234.344,1.082,1.082,0,0,0-.445.9.877.877,0,0,0,.414.789,5.1,5.1,0,0,0,1.5.508,7.8,7.8,0,0,1,1.754.578,2.558,2.558,0,0,1,1,.809A1.988,1.988,0,0,1-46.3-2.344,2.163,2.163,0,0,1-47.2-.527a3.8,3.8,0,0,1-2.352.684,4.257,4.257,0,0,1-1.8-.359,2.922,2.922,0,0,1-1.223-1A2.42,2.42,0,0,1-53.016-2.6h1.445a1.5,1.5,0,0,0,.582,1.152,2.258,2.258,0,0,0,1.434.426,2.331,2.331,0,0,0,1.316-.332A1.02,1.02,0,0,0-47.742-2.242Zm5.289-8.258v2.047h1.578v1.117h-1.578v5.249a1.173,1.173,0,0,0,.211.763.888.888,0,0,0,.719.254,3.5,3.5,0,0,0,.688-.094V0a4.215,4.215,0,0,1-1.109.155A1.8,1.8,0,0,1-43.406-.43,2.517,2.517,0,0,1-43.9-2.094V-7.336h-1.539V-8.453H-43.9V-10.5ZM-35.1-7.156a4.331,4.331,0,0,0-.711-.055A1.9,1.9,0,0,0-37.742-6V0h-1.445V-8.453h1.406l.023.977a2.251,2.251,0,0,1,2.016-1.133A1.477,1.477,0,0,1-35.1-8.5ZM-32.2,0h-1.445V-8.453H-32.2Zm-1.562-10.7a.863.863,0,0,1,.215-.594.807.807,0,0,1,.637-.242.819.819,0,0,1,.641.242.854.854,0,0,1,.219.594.826.826,0,0,1-.219.586.834.834,0,0,1-.641.234.821.821,0,0,1-.637-.234A.834.834,0,0,1-33.766-10.7Zm11.031,6.563a5.026,5.026,0,0,1-.891,3.113A2.846,2.846,0,0,1-26.016.156,2.947,2.947,0,0,1-28.492-.977l-.07.977h-1.328V-12h1.445v4.477a2.93,2.93,0,0,1,2.414-1.086,2.863,2.863,0,0,1,2.418,1.164,5.177,5.177,0,0,1,.879,3.188ZM-24.18-4.3a3.906,3.906,0,0,0-.57-2.281,1.888,1.888,0,0,0-1.641-.8,2.122,2.122,0,0,0-2.055,1.328V-2.4a2.181,2.181,0,0,0,2.07,1.328,1.878,1.878,0,0,0,1.617-.8A4.153,4.153,0,0,0-24.18-4.3ZM-15.7-.836a3.07,3.07,0,0,1-2.477.992A2.628,2.628,0,0,1-20.23-.629a3.4,3.4,0,0,1-.715-2.324v-5.5H-19.5v5.461q0,1.922,1.563,1.922a2.163,2.163,0,0,0,2.2-1.234V-8.453h1.445V0h-1.375ZM-8.7-1.023a2.082,2.082,0,0,0,1.352-.469,1.649,1.649,0,0,0,.641-1.172h1.367a2.621,2.621,0,0,1-.5,1.383A3.293,3.293,0,0,1-7.074-.234,3.55,3.55,0,0,1-8.7.156,3.482,3.482,0,0,1-11.449-1a4.59,4.59,0,0,1-1.02-3.152v-.242a5.089,5.089,0,0,1,.453-2.2,3.451,3.451,0,0,1,1.3-1.492,3.7,3.7,0,0,1,2-.531,3.39,3.39,0,0,1,2.363.852,3.043,3.043,0,0,1,1,2.211H-6.711a1.992,1.992,0,0,0-.621-1.348,1.932,1.932,0,0,0-1.379-.527,2.023,2.023,0,0,0-1.707.793,3.724,3.724,0,0,0-.605,2.293v.273a3.65,3.65,0,0,0,.6,2.25A2.033,2.033,0,0,0-8.7-1.023ZM-2.148,0H-3.594V-8.453h1.445ZM-3.711-10.7a.863.863,0,0,1,.215-.594.807.807,0,0,1,.637-.242.819.819,0,0,1,.641.242A.854.854,0,0,1-2-10.7a.826.826,0,0,1-.219.586.834.834,0,0,1-.641.234.821.821,0,0,1-.637-.234A.834.834,0,0,1-3.711-10.7ZM-.219-4.3A4.993,4.993,0,0,1,.27-6.539,3.643,3.643,0,0,1,1.629-8.07a3.7,3.7,0,0,1,1.988-.539,3.565,3.565,0,0,1,2.793,1.2,4.6,4.6,0,0,1,1.066,3.18v.1A5.036,5.036,0,0,1,7-1.918,3.589,3.589,0,0,1,5.652-.391a3.743,3.743,0,0,1-2.02.547,3.556,3.556,0,0,1-2.785-1.2A4.575,4.575,0,0,1-.219-4.2Zm1.453.172a3.616,3.616,0,0,0,.652,2.258,2.088,2.088,0,0,0,1.746.852,2.075,2.075,0,0,0,1.75-.863A3.955,3.955,0,0,0,6.031-4.3a3.61,3.61,0,0,0-.66-2.254,2.1,2.1,0,0,0-1.754-.863,2.075,2.075,0,0,0-1.727.852A3.925,3.925,0,0,0,1.234-4.133Zm3.039-7.852h1.75L3.93-9.687l-1.164,0Zm6.383,3.531L10.7-7.391a3.08,3.08,0,0,1,2.531-1.219q2.68,0,2.7,3.023V0H14.492V-5.594a1.946,1.946,0,0,0-.418-1.352A1.675,1.675,0,0,0,12.8-7.383a2.086,2.086,0,0,0-1.234.375,2.546,2.546,0,0,0-.828.984V0H9.289V-8.453Zm14.813,7.43a2.082,2.082,0,0,0,1.352-.469,1.649,1.649,0,0,0,.641-1.172h1.367a2.621,2.621,0,0,1-.5,1.383A3.293,3.293,0,0,1,27.1-.234a3.55,3.55,0,0,1-1.629.391A3.482,3.482,0,0,1,22.723-1,4.59,4.59,0,0,1,21.7-4.148v-.242a5.089,5.089,0,0,1,.453-2.2,3.451,3.451,0,0,1,1.3-1.492,3.7,3.7,0,0,1,2-.531,3.39,3.39,0,0,1,2.363.852,3.043,3.043,0,0,1,1,2.211H27.461a1.992,1.992,0,0,0-.621-1.348,1.932,1.932,0,0,0-1.379-.527,2.023,2.023,0,0,0-1.707.793,3.724,3.724,0,0,0-.605,2.293v.273a3.65,3.65,0,0,0,.6,2.25A2.033,2.033,0,0,0,25.469-1.023ZM32.023,0H30.578V-12h1.445Zm3.883,0H34.461V-8.453h1.445ZM34.344-10.7a.863.863,0,0,1,.215-.594.807.807,0,0,1,.637-.242.819.819,0,0,1,.641.242.854.854,0,0,1,.219.594.826.826,0,0,1-.219.586.834.834,0,0,1-.641.234.821.821,0,0,1-.637-.234A.834.834,0,0,1,34.344-10.7ZM41.727.156a3.693,3.693,0,0,1-2.8-1.129,4.19,4.19,0,0,1-1.078-3.02v-.266a5.073,5.073,0,0,1,.48-2.246,3.748,3.748,0,0,1,1.344-1.547,3.378,3.378,0,0,1,1.871-.559,3.166,3.166,0,0,1,2.563,1.086,4.7,4.7,0,0,1,.914,3.109v.6H39.3a3,3,0,0,0,.73,2.02,2.3,2.3,0,0,0,1.777.77,2.517,2.517,0,0,0,1.3-.312,3.259,3.259,0,0,0,.93-.828l.883.688A3.55,3.55,0,0,1,41.727.156Zm-.18-7.578a1.928,1.928,0,0,0-1.469.637A3.1,3.1,0,0,0,39.344-5h4.234v-.109a2.753,2.753,0,0,0-.594-1.707A1.815,1.815,0,0,0,41.547-7.422Zm6.516-1.031.047,1.063a3.08,3.08,0,0,1,2.531-1.219q2.68,0,2.7,3.023V0H51.9V-5.594a1.946,1.946,0,0,0-.418-1.352A1.675,1.675,0,0,0,50.2-7.383a2.086,2.086,0,0,0-1.234.375,2.546,2.546,0,0,0-.828.984V0H46.7V-8.453ZM57.484-10.5v2.047h1.578v1.117H57.484v5.249a1.173,1.173,0,0,0,.211.763.888.888,0,0,0,.719.254,3.5,3.5,0,0,0,.688-.094V0a4.215,4.215,0,0,1-1.109.155A1.8,1.8,0,0,1,56.531-.43a2.517,2.517,0,0,1-.492-1.664V-7.336H54.5V-8.453h1.539V-10.5ZM64.258.156a3.693,3.693,0,0,1-2.8-1.129,4.19,4.19,0,0,1-1.078-3.02v-.266a5.073,5.073,0,0,1,.48-2.246,3.748,3.748,0,0,1,1.344-1.547,3.378,3.378,0,0,1,1.871-.559,3.166,3.166,0,0,1,2.563,1.086,4.7,4.7,0,0,1,.914,3.109v.6H61.828a3,3,0,0,0,.73,2.02,2.3,2.3,0,0,0,1.777.77,2.517,2.517,0,0,0,1.3-.312,3.259,3.259,0,0,0,.93-.828l.883.688A3.55,3.55,0,0,1,64.258.156Zm-.18-7.578a1.928,1.928,0,0,0-1.469.637A3.1,3.1,0,0,0,61.875-5h4.234v-.109a2.753,2.753,0,0,0-.594-1.707A1.815,1.815,0,0,0,64.078-7.422Z" transform="translate(2657.062 -7696.238)" fill="#00334e"/>
    <path id="Trazado_237711" data-name="Trazado 237711" d="M9.328-11.375v7.734A3.628,3.628,0,0,1,8.316-1.008,4.077,4.077,0,0,1,5.594.141L5.2.156A4.258,4.258,0,0,1,2.219-.852,3.6,3.6,0,0,1,1.094-3.625v-7.75H2.578v7.7a2.6,2.6,0,0,0,.68,1.918A2.612,2.612,0,0,0,5.2-1.07a2.63,2.63,0,0,0,1.949-.68A2.6,2.6,0,0,0,7.82-3.664v-7.711Zm7.063,9.133a1.064,1.064,0,0,0-.441-.91,4.249,4.249,0,0,0-1.539-.559,7.277,7.277,0,0,1-1.742-.562,2.479,2.479,0,0,1-.953-.781,1.869,1.869,0,0,1-.309-1.078,2.193,2.193,0,0,1,.879-1.758,3.432,3.432,0,0,1,2.246-.719,3.532,3.532,0,0,1,2.332.742,2.357,2.357,0,0,1,.895,1.9H16.3a1.3,1.3,0,0,0-.5-1.023,1.888,1.888,0,0,0-1.27-.43,1.976,1.976,0,0,0-1.234.344,1.082,1.082,0,0,0-.445.9.877.877,0,0,0,.414.789,5.1,5.1,0,0,0,1.5.508,7.8,7.8,0,0,1,1.754.578,2.558,2.558,0,0,1,1,.809,1.988,1.988,0,0,1,.324,1.152A2.163,2.163,0,0,1,16.93-.527a3.8,3.8,0,0,1-2.352.684,4.257,4.257,0,0,1-1.8-.359,2.922,2.922,0,0,1-1.223-1A2.42,2.42,0,0,1,11.117-2.6h1.445a1.5,1.5,0,0,0,.582,1.152,2.258,2.258,0,0,0,1.434.426,2.331,2.331,0,0,0,1.316-.332A1.02,1.02,0,0,0,16.391-2.242ZM19.336-4.3a4.993,4.993,0,0,1,.488-2.234A3.643,3.643,0,0,1,21.184-8.07a3.7,3.7,0,0,1,1.988-.539,3.565,3.565,0,0,1,2.793,1.2,4.6,4.6,0,0,1,1.066,3.18v.1a5.036,5.036,0,0,1-.473,2.215A3.589,3.589,0,0,1,25.207-.391a3.743,3.743,0,0,1-2.02.547,3.556,3.556,0,0,1-2.785-1.2A4.575,4.575,0,0,1,19.336-4.2Zm1.453.172a3.616,3.616,0,0,0,.652,2.258,2.088,2.088,0,0,0,1.746.852,2.075,2.075,0,0,0,1.75-.863A3.955,3.955,0,0,0,25.586-4.3a3.61,3.61,0,0,0-.66-2.254,2.1,2.1,0,0,0-1.754-.863,2.075,2.075,0,0,0-1.727.852A3.925,3.925,0,0,0,20.789-4.133Z" transform="translate(2770.659 -7696.238)" fill="#fff"/>
    <path id="Trazado_237712" data-name="Trazado 237712" d="M-30.574-5.023h-4.773V0h-1.5V-11.375H-29.8v1.227h-5.547v3.9h4.773ZM-26.66,0h-1.445V-8.453h1.445Zm-1.562-10.7a.863.863,0,0,1,.215-.594.807.807,0,0,1,.637-.242.819.819,0,0,1,.641.242.854.854,0,0,1,.219.594.826.826,0,0,1-.219.586.834.834,0,0,1-.641.234.821.821,0,0,1-.637-.234A.834.834,0,0,1-28.223-10.7Zm5.242,2.242.047,1.063A3.08,3.08,0,0,1-20.4-8.609q2.68,0,2.7,3.023V0h-1.445V-5.594a1.946,1.946,0,0,0-.418-1.352,1.675,1.675,0,0,0-1.277-.437,2.086,2.086,0,0,0-1.234.375,2.546,2.546,0,0,0-.828.984V0h-1.445V-8.453ZM-11.91-4.3a4.952,4.952,0,0,1,.922-3.129A2.915,2.915,0,0,1-8.574-8.609,2.932,2.932,0,0,1-6.223-7.594V-12h1.445V0H-6.105l-.07-.906A2.943,2.943,0,0,1-8.59.156a2.887,2.887,0,0,1-2.395-1.2,5.008,5.008,0,0,1-.926-3.141Zm1.445.164a3.749,3.749,0,0,0,.594,2.25A1.92,1.92,0,0,0-8.23-1.07,2.108,2.108,0,0,0-6.223-2.3V-6.187a2.125,2.125,0,0,0-1.992-1.2,1.929,1.929,0,0,0-1.656.82A4.128,4.128,0,0,0-10.465-4.133ZM.973.156a3.693,3.693,0,0,1-2.8-1.129A4.19,4.19,0,0,1-2.9-3.992v-.266A5.073,5.073,0,0,1-2.422-6.5,3.748,3.748,0,0,1-1.078-8.051,3.378,3.378,0,0,1,.793-8.609,3.166,3.166,0,0,1,3.355-7.523,4.7,4.7,0,0,1,4.27-4.414v.6H-1.457a3,3,0,0,0,.73,2.02,2.3,2.3,0,0,0,1.777.77,2.517,2.517,0,0,0,1.3-.312,3.259,3.259,0,0,0,.93-.828l.883.688A3.55,3.55,0,0,1,.973.156ZM.793-7.422a1.928,1.928,0,0,0-1.469.637A3.1,3.1,0,0,0-1.41-5H2.824v-.109A2.753,2.753,0,0,0,2.23-6.816,1.815,1.815,0,0,0,.793-7.422Zm11.9,5.461,2.094-6.492h1.477L13.23,0h-1.1L9.066-8.453h1.477ZM19.223,0H17.777V-8.453h1.445ZM17.66-10.7a.863.863,0,0,1,.215-.594.807.807,0,0,1,.637-.242.819.819,0,0,1,.641.242.854.854,0,0,1,.219.594.826.826,0,0,1-.219.586.834.834,0,0,1-.641.234.821.821,0,0,1-.637-.234A.834.834,0,0,1,17.66-10.7Zm3.523,6.4a4.952,4.952,0,0,1,.922-3.129A2.915,2.915,0,0,1,24.52-8.609a2.932,2.932,0,0,1,2.352,1.016V-12h1.445V0H26.988l-.07-.906A2.943,2.943,0,0,1,24.5.156a2.887,2.887,0,0,1-2.395-1.2,5.008,5.008,0,0,1-.926-3.141Zm1.445.164a3.749,3.749,0,0,0,.594,2.25,1.92,1.92,0,0,0,1.641.813A2.108,2.108,0,0,0,26.871-2.3V-6.187a2.125,2.125,0,0,0-1.992-1.2,1.929,1.929,0,0,0-1.656.82A4.128,4.128,0,0,0,22.629-4.133ZM35.777,0a3.036,3.036,0,0,1-.2-.891A3.225,3.225,0,0,1,33.168.156a2.984,2.984,0,0,1-2.051-.707,2.287,2.287,0,0,1-.8-1.793,2.39,2.39,0,0,1,1-2.051,4.733,4.733,0,0,1,2.824-.73h1.406v-.664A1.623,1.623,0,0,0,35.1-7a1.821,1.821,0,0,0-1.336-.449,2.107,2.107,0,0,0-1.3.391,1.151,1.151,0,0,0-.523.945H30.488a2,2,0,0,1,.449-1.223,3.066,3.066,0,0,1,1.219-.934,4.1,4.1,0,0,1,1.691-.344,3.342,3.342,0,0,1,2.289.73A2.635,2.635,0,0,1,37-5.867v3.891a4.757,4.757,0,0,0,.3,1.852V0Zm-2.4-1.1a2.54,2.54,0,0,0,1.289-.352,2.127,2.127,0,0,0,.883-.914V-4.1H34.418q-2.656,0-2.656,1.555a1.316,1.316,0,0,0,.453,1.063A1.742,1.742,0,0,0,33.379-1.1Z" transform="translate(2917 -7696.238)" fill="#fff"/>
    <path id="Trazado_237731" data-name="Trazado 237731" d="M-43.4,0V-11.375h3.211a5.169,5.169,0,0,1,2.625.656A4.438,4.438,0,0,1-35.8-8.852a6.078,6.078,0,0,1,.629,2.781v.727a6.1,6.1,0,0,1-.621,2.82A4.369,4.369,0,0,1-37.57-.664,5.5,5.5,0,0,1-40.254,0Zm1.5-10.148v8.922h1.578a3.434,3.434,0,0,0,2.7-1.079,4.458,4.458,0,0,0,.965-3.073v-.665a4.529,4.529,0,0,0-.91-3.014,3.239,3.239,0,0,0-2.582-1.091ZM-29.629.156a3.693,3.693,0,0,1-2.8-1.129A4.19,4.19,0,0,1-33.5-3.992v-.266a5.073,5.073,0,0,1,.48-2.246A3.748,3.748,0,0,1-31.68-8.051a3.378,3.378,0,0,1,1.871-.559,3.166,3.166,0,0,1,2.563,1.086,4.7,4.7,0,0,1,.914,3.109v.6h-5.727a3,3,0,0,0,.73,2.02,2.3,2.3,0,0,0,1.777.77,2.517,2.517,0,0,0,1.3-.312,3.259,3.259,0,0,0,.93-.828l.883.688A3.55,3.55,0,0,1-29.629.156Zm-.18-7.578a1.928,1.928,0,0,0-1.469.637A3.1,3.1,0,0,0-32.012-5h4.234v-.109a2.753,2.753,0,0,0-.594-1.707A1.815,1.815,0,0,0-29.809-7.422ZM-19.129,0h-1.445V-12h1.445ZM-11.6,0a3.036,3.036,0,0,1-.2-.891A3.225,3.225,0,0,1-14.207.156a2.984,2.984,0,0,1-2.051-.707,2.287,2.287,0,0,1-.8-1.793,2.39,2.39,0,0,1,1-2.051,4.733,4.733,0,0,1,2.824-.73h1.406v-.664A1.623,1.623,0,0,0-12.277-7a1.821,1.821,0,0,0-1.336-.449,2.107,2.107,0,0,0-1.3.391,1.151,1.151,0,0,0-.523.945h-1.453a2,2,0,0,1,.449-1.223,3.066,3.066,0,0,1,1.219-.934,4.1,4.1,0,0,1,1.691-.344,3.342,3.342,0,0,1,2.289.73,2.635,2.635,0,0,1,.859,2.012v3.891a4.757,4.757,0,0,0,.3,1.852V0ZM-14-1.1a2.54,2.54,0,0,0,1.289-.352,2.127,2.127,0,0,0,.883-.914V-4.1h-1.133q-2.656,0-2.656,1.555a1.316,1.316,0,0,0,.453,1.063A1.742,1.742,0,0,0-14-1.1ZM2.988-4.133a5.062,5.062,0,0,1-.883,3.109A2.829,2.829,0,0,1-.285.156,3.1,3.1,0,0,1-2.707-.82V3.25H-4.152v-11.7h1.32l.07.938A2.977,2.977,0,0,1-.309-8.609,2.882,2.882,0,0,1,2.1-7.461a5.117,5.117,0,0,1,.887,3.2ZM1.543-4.3A3.735,3.735,0,0,0,.934-6.555,1.963,1.963,0,0,0-.738-7.383,2.125,2.125,0,0,0-2.707-6.219V-2.18A2.129,2.129,0,0,0-.723-1.023,1.954,1.954,0,0,0,.93-1.848,4.077,4.077,0,0,0,1.543-4.3Zm8.5,3.461A3.07,3.07,0,0,1,7.566.156,2.628,2.628,0,0,1,5.508-.629a3.4,3.4,0,0,1-.715-2.324v-5.5H6.238v5.461Q6.238-1.07,7.8-1.07A2.163,2.163,0,0,0,10-2.3V-8.453h1.445V0H10.074Zm7.109.992a3.693,3.693,0,0,1-2.8-1.129,4.19,4.19,0,0,1-1.078-3.02v-.266a5.073,5.073,0,0,1,.48-2.246A3.748,3.748,0,0,1,15.1-8.051a3.378,3.378,0,0,1,1.871-.559,3.166,3.166,0,0,1,2.563,1.086,4.7,4.7,0,0,1,.914,3.109v.6H14.723a3,3,0,0,0,.73,2.02,2.3,2.3,0,0,0,1.777.77,2.517,2.517,0,0,0,1.3-.312,3.259,3.259,0,0,0,.93-.828l.883.688A3.55,3.55,0,0,1,17.152.156Zm-.18-7.578a1.928,1.928,0,0,0-1.469.637A3.1,3.1,0,0,0,14.77-5H19v-.109a2.753,2.753,0,0,0-.594-1.707A1.815,1.815,0,0,0,16.973-7.422Zm9.234.266a4.331,4.331,0,0,0-.711-.055A1.9,1.9,0,0,0,23.566-6V0H22.121V-8.453h1.406l.023.977a2.251,2.251,0,0,1,2.016-1.133,1.477,1.477,0,0,1,.641.109Zm3.68-3.344v2.047h1.578v1.117H29.887v5.249a1.173,1.173,0,0,0,.211.763.888.888,0,0,0,.719.254,3.5,3.5,0,0,0,.688-.094V0a4.215,4.215,0,0,1-1.109.155A1.8,1.8,0,0,1,28.934-.43a2.517,2.517,0,0,1-.492-1.664V-7.336H26.9V-8.453h1.539V-10.5ZM38.371,0a3.036,3.036,0,0,1-.2-.891A3.225,3.225,0,0,1,35.762.156a2.984,2.984,0,0,1-2.051-.707,2.287,2.287,0,0,1-.8-1.793,2.39,2.39,0,0,1,1-2.051,4.733,4.733,0,0,1,2.824-.73h1.406v-.664A1.623,1.623,0,0,0,37.691-7a1.821,1.821,0,0,0-1.336-.449,2.107,2.107,0,0,0-1.3.391,1.151,1.151,0,0,0-.523.945H33.082a2,2,0,0,1,.449-1.223,3.066,3.066,0,0,1,1.219-.934,4.1,4.1,0,0,1,1.691-.344,3.342,3.342,0,0,1,2.289.73,2.635,2.635,0,0,1,.859,2.012v3.891a4.757,4.757,0,0,0,.3,1.852V0Zm-2.4-1.1a2.54,2.54,0,0,0,1.289-.352,2.127,2.127,0,0,0,.883-.914V-4.1H37.012q-2.656,0-2.656,1.555a1.316,1.316,0,0,0,.453,1.063A1.742,1.742,0,0,0,35.973-1.1ZM-31.3,19a3.036,3.036,0,0,1-.2-.891,3.225,3.225,0,0,1-2.406,1.047,2.984,2.984,0,0,1-2.051-.707,2.287,2.287,0,0,1-.8-1.793,2.39,2.39,0,0,1,1-2.051,4.733,4.733,0,0,1,2.824-.73h1.406v-.664A1.623,1.623,0,0,0-31.977,12a1.821,1.821,0,0,0-1.336-.449,2.107,2.107,0,0,0-1.3.391,1.151,1.151,0,0,0-.523.945h-1.453a2,2,0,0,1,.449-1.223,3.066,3.066,0,0,1,1.219-.934,4.1,4.1,0,0,1,1.691-.344,3.342,3.342,0,0,1,2.289.73,2.635,2.635,0,0,1,.859,2.012v3.891a4.757,4.757,0,0,0,.3,1.852V19Zm-2.4-1.1a2.54,2.54,0,0,0,1.289-.352,2.127,2.127,0,0,0,.883-.914V14.9h-1.133q-2.656,0-2.656,1.555a1.316,1.316,0,0,0,.453,1.063A1.742,1.742,0,0,0-33.7,17.9ZM-22.281,19h-1.445V7h1.445Zm7.531,0a3.036,3.036,0,0,1-.2-.891,3.225,3.225,0,0,1-2.406,1.047,2.984,2.984,0,0,1-2.051-.707,2.287,2.287,0,0,1-.8-1.793,2.39,2.39,0,0,1,1-2.051,4.733,4.733,0,0,1,2.824-.73h1.406v-.664A1.623,1.623,0,0,0-15.43,12a1.821,1.821,0,0,0-1.336-.449,2.107,2.107,0,0,0-1.3.391,1.151,1.151,0,0,0-.523.945h-1.453a2,2,0,0,1,.449-1.223,3.066,3.066,0,0,1,1.219-.934,4.1,4.1,0,0,1,1.691-.344,3.342,3.342,0,0,1,2.289.73,2.635,2.635,0,0,1,.859,2.012v3.891a4.757,4.757,0,0,0,.3,1.852V19Zm-2.4-1.1a2.54,2.54,0,0,0,1.289-.352,2.127,2.127,0,0,0,.883-.914V14.9h-1.133q-2.656,0-2.656,1.555a1.316,1.316,0,0,0,.453,1.063A1.742,1.742,0,0,0-17.148,17.9ZM-.164,14.867a5.062,5.062,0,0,1-.883,3.109,2.829,2.829,0,0,1-2.391,1.18,3.1,3.1,0,0,1-2.422-.977v4.07H-7.3v-11.7h1.32l.07.938a2.977,2.977,0,0,1,2.453-1.094,2.882,2.882,0,0,1,2.41,1.148,5.117,5.117,0,0,1,.887,3.2ZM-1.609,14.7a3.735,3.735,0,0,0-.609-2.258,1.963,1.963,0,0,0-1.672-.828,2.125,2.125,0,0,0-1.969,1.164V16.82a2.129,2.129,0,0,0,1.984,1.156,1.954,1.954,0,0,0,1.652-.824A4.077,4.077,0,0,0-1.609,14.7Zm8.5,3.461a3.07,3.07,0,0,1-2.477.992,2.628,2.628,0,0,1-2.059-.785,3.4,3.4,0,0,1-.715-2.324v-5.5H3.086v5.461q0,1.922,1.563,1.922a2.163,2.163,0,0,0,2.2-1.234V10.547H8.3V19H6.922ZM14,19.156a3.693,3.693,0,0,1-2.8-1.129,4.19,4.19,0,0,1-1.078-3.02v-.266a5.073,5.073,0,0,1,.48-2.246,3.748,3.748,0,0,1,1.344-1.547,3.378,3.378,0,0,1,1.871-.559,3.166,3.166,0,0,1,2.563,1.086,4.7,4.7,0,0,1,.914,3.109v.6H11.57a3,3,0,0,0,.73,2.02,2.3,2.3,0,0,0,1.777.77,2.517,2.517,0,0,0,1.3-.312,3.259,3.259,0,0,0,.93-.828l.883.688A3.55,3.55,0,0,1,14,19.156Zm-.18-7.578a1.928,1.928,0,0,0-1.469.637A3.1,3.1,0,0,0,11.617,14h4.234v-.109a2.753,2.753,0,0,0-.594-1.707A1.815,1.815,0,0,0,13.82,11.578Zm9.234.266a4.331,4.331,0,0,0-.711-.055A1.9,1.9,0,0,0,20.414,13v6H18.969V10.547h1.406l.023.977a2.251,2.251,0,0,1,2.016-1.133,1.477,1.477,0,0,1,.641.109ZM26.734,8.5v2.047h1.578v1.117H26.734v5.249a1.173,1.173,0,0,0,.211.763.888.888,0,0,0,.719.254,3.5,3.5,0,0,0,.688-.094V19a4.215,4.215,0,0,1-1.109.155,1.8,1.8,0,0,1-1.461-.586,2.517,2.517,0,0,1-.492-1.664V11.664H23.75V10.547h1.539V8.5ZM35.219,19a3.036,3.036,0,0,1-.2-.891,3.225,3.225,0,0,1-2.406,1.047,2.984,2.984,0,0,1-2.051-.707,2.287,2.287,0,0,1-.8-1.793,2.39,2.39,0,0,1,1-2.051,4.733,4.733,0,0,1,2.824-.73h1.406v-.664A1.623,1.623,0,0,0,34.539,12a1.821,1.821,0,0,0-1.336-.449,2.107,2.107,0,0,0-1.3.391,1.151,1.151,0,0,0-.523.945H29.93a2,2,0,0,1,.449-1.223,3.066,3.066,0,0,1,1.219-.934,4.1,4.1,0,0,1,1.691-.344,3.342,3.342,0,0,1,2.289.73,2.635,2.635,0,0,1,.859,2.012v3.891a4.757,4.757,0,0,0,.3,1.852V19Zm-2.4-1.1a2.54,2.54,0,0,0,1.289-.352,2.127,2.127,0,0,0,.883-.914V14.9H33.859q-2.656,0-2.656,1.555a1.316,1.316,0,0,0,.453,1.063A1.742,1.742,0,0,0,32.82,17.9ZM-46.031,33.414a14.789,14.789,0,0,1,.957-3.516,10.894,10.894,0,0,1,1.715-2.918,7.045,7.045,0,0,1,2.266-1.824l.211.969a8.108,8.108,0,0,0-2.105,2.387,12.281,12.281,0,0,0-1.355,3.5,16.834,16.834,0,0,0-.461,4,8.85,8.85,0,0,0,.418,2.848A4.494,4.494,0,0,0-43.18,40.8l-.352.875a5.641,5.641,0,0,1-2-2.68,10.335,10.335,0,0,1-.629-4.062,12.351,12.351,0,0,1,.109-1.43Zm5,.344a6.889,6.889,0,0,1,.746-2.4,3.9,3.9,0,0,1,1.359-1.508,3.151,3.151,0,0,1,1.754-.465,2.6,2.6,0,0,1,2.219,1.109l.281-.945h1.3l-1.406,8.273a4.113,4.113,0,0,1-1.312,2.59,3.7,3.7,0,0,1-2.68.926,3.8,3.8,0,0,1-1.645-.406,3.127,3.127,0,0,1-1.238-1.07l.8-.867a2.419,2.419,0,0,0,2.023,1.164,2.425,2.425,0,0,0,1.707-.562,2.9,2.9,0,0,0,.926-1.687l.156-.75a3.2,3.2,0,0,1-2.414,1,2.486,2.486,0,0,1-1.371-.426,2.589,2.589,0,0,1-.9-1.164,4.759,4.759,0,0,1-.352-1.7A8.733,8.733,0,0,1-41.031,33.758Zm1.367.8a2.974,2.974,0,0,0,.387,1.728,1.461,1.461,0,0,0,1.238.644,2.561,2.561,0,0,0,2.18-1.241l.664-3.878a1.776,1.776,0,0,0-1.7-1.2,2.194,2.194,0,0,0-1.887.936,4.878,4.878,0,0,0-.871,2.614ZM-27.484,38a1.894,1.894,0,0,1-.055-.445l.023-.445a3.465,3.465,0,0,1-2.469,1.047,2.526,2.526,0,0,1-1.816-.707,2.14,2.14,0,0,1-.637-1.73,2.6,2.6,0,0,1,1.176-2.1,5.005,5.005,0,0,1,2.887-.754l1.477.008.094-.672A1.545,1.545,0,0,0-27.1,31a1.414,1.414,0,0,0-1.113-.457A2.181,2.181,0,0,0-29.5,30.9a1.513,1.513,0,0,0-.684.98l-1.422.008a2.266,2.266,0,0,1,.578-1.316,3.363,3.363,0,0,1,1.3-.891,4.215,4.215,0,0,1,1.648-.3,2.8,2.8,0,0,1,2.055.8,2.484,2.484,0,0,1,.617,2.043l-.687,4.188-.039.6a2.949,2.949,0,0,0,.094.852l-.016.133ZM-29.7,36.906a2.466,2.466,0,0,0,1.285-.324,3.254,3.254,0,0,0,1.043-.941l.3-1.742-1.07-.008a4.054,4.054,0,0,0-2.047.422,1.554,1.554,0,0,0-.8,1.2,1.21,1.21,0,0,0,.277.988A1.321,1.321,0,0,0-29.7,36.906Zm9.3-9.406-.359,2.047h1.539l-.2,1.117h-1.531l-.883,5.258a1.833,1.833,0,0,0-.008.375.6.6,0,0,0,.664.609,4.05,4.05,0,0,0,.688-.078l-.109,1.18a3.847,3.847,0,0,1-1.031.141,1.476,1.476,0,0,1-1.266-.621,2.4,2.4,0,0,1-.328-1.629l.859-5.234h-1.492l.2-1.117h1.492L-21.8,27.5Zm5.07,10.656A3.048,3.048,0,0,1-17.8,36.992a4.006,4.006,0,0,1-.75-2.9l.039-.336a5.624,5.624,0,0,1,.746-2.3,4.339,4.339,0,0,1,1.5-1.566,3.491,3.491,0,0,1,1.906-.5,2.688,2.688,0,0,1,2.047.867,3.566,3.566,0,0,1,.813,2.266,6.621,6.621,0,0,1-.031,1.016l-.086.648h-5.523a2.856,2.856,0,0,0,.379,1.953,1.8,1.8,0,0,0,1.551.836A3.007,3.007,0,0,0-12.9,35.852l.813.688a3.718,3.718,0,0,1-1.371,1.2A3.886,3.886,0,0,1-15.328,38.156Zm.9-7.586a2.066,2.066,0,0,0-1.527.594A4.22,4.22,0,0,0-16.992,33l4.109.008.031-.125a2.313,2.313,0,0,0-.316-1.637A1.488,1.488,0,0,0-14.43,30.57Zm11.4-3.07-.359,2.047h1.539l-.2,1.117H-3.578l-.883,5.258a1.833,1.833,0,0,0-.008.375.6.6,0,0,0,.664.609,4.05,4.05,0,0,0,.688-.078l-.109,1.18a3.847,3.847,0,0,1-1.031.141,1.476,1.476,0,0,1-1.266-.621A2.4,2.4,0,0,1-5.852,35.9l.859-5.234H-6.484l.2-1.117H-4.8l.359-2.047Zm5.953,1.891a3.047,3.047,0,0,1,1.82.578A3.285,3.285,0,0,1,5.863,31.52a4.8,4.8,0,0,1,.246,2.16l-.016.172a5.685,5.685,0,0,1-.734,2.23,4.309,4.309,0,0,1-1.516,1.551,3.7,3.7,0,0,1-2.039.523,3.052,3.052,0,0,1-1.816-.578,3.21,3.21,0,0,1-1.113-1.531,4.931,4.931,0,0,1-.25-2.133,5.76,5.76,0,0,1,.711-2.359A4.409,4.409,0,0,1,.863,29.934,3.652,3.652,0,0,1,2.922,29.391ZM.047,33.922a4.8,4.8,0,0,0,0,1.023A2.507,2.507,0,0,0,.6,36.414a1.653,1.653,0,0,0,1.262.57,2.253,2.253,0,0,0,1.3-.348,2.919,2.919,0,0,0,1-1.121,4.721,4.721,0,0,0,.523-1.664A7.494,7.494,0,0,0,4.7,32.641a2.6,2.6,0,0,0-.57-1.492,1.69,1.69,0,0,0-1.266-.578,2.3,2.3,0,0,0-1.859.859,4.245,4.245,0,0,0-.945,2.313Zm11.445-.164a6.889,6.889,0,0,1,.746-2.4A3.9,3.9,0,0,1,13.6,29.848a3.151,3.151,0,0,1,1.754-.465,2.6,2.6,0,0,1,2.219,1.109l.281-.945h1.3L17.742,37.82a4.113,4.113,0,0,1-1.312,2.59,3.7,3.7,0,0,1-2.68.926,3.8,3.8,0,0,1-1.645-.406,3.127,3.127,0,0,1-1.238-1.07l.8-.867a2.536,2.536,0,0,0,3.73.6,2.9,2.9,0,0,0,.926-1.687l.156-.75a3.2,3.2,0,0,1-2.414,1A2.486,2.486,0,0,1,12.7,37.73a2.589,2.589,0,0,1-.9-1.164,4.759,4.759,0,0,1-.352-1.7A8.733,8.733,0,0,1,11.492,33.758Zm1.367.8a2.974,2.974,0,0,0,.387,1.728,1.461,1.461,0,0,0,1.238.644,2.561,2.561,0,0,0,2.18-1.241l.664-3.878a1.776,1.776,0,0,0-1.7-1.2,2.194,2.194,0,0,0-1.887.936,4.878,4.878,0,0,0-.871,2.614ZM25.039,38a1.894,1.894,0,0,1-.055-.445l.023-.445a3.465,3.465,0,0,1-2.469,1.047,2.526,2.526,0,0,1-1.816-.707,2.14,2.14,0,0,1-.637-1.73,2.6,2.6,0,0,1,1.176-2.1,5.005,5.005,0,0,1,2.887-.754l1.477.008.094-.672a1.545,1.545,0,0,0-.293-1.2,1.414,1.414,0,0,0-1.113-.457,2.181,2.181,0,0,0-1.285.355,1.513,1.513,0,0,0-.684.98l-1.422.008a2.266,2.266,0,0,1,.578-1.316,3.363,3.363,0,0,1,1.3-.891,4.215,4.215,0,0,1,1.648-.3,2.8,2.8,0,0,1,2.055.8,2.484,2.484,0,0,1,.617,2.043l-.687,4.188-.039.6a2.949,2.949,0,0,0,.094.852L26.477,38ZM22.82,36.906a2.466,2.466,0,0,0,1.285-.324,3.254,3.254,0,0,0,1.043-.941l.3-1.742-1.07-.008a4.054,4.054,0,0,0-2.047.422,1.554,1.554,0,0,0-.8,1.2,1.21,1.21,0,0,0,.277.988A1.321,1.321,0,0,0,22.82,36.906Zm9.3-9.406-.359,2.047H33.3l-.2,1.117H31.578L30.7,35.922a1.833,1.833,0,0,0-.008.375.6.6,0,0,0,.664.609,4.05,4.05,0,0,0,.688-.078l-.109,1.18a3.847,3.847,0,0,1-1.031.141,1.476,1.476,0,0,1-1.266-.621A2.4,2.4,0,0,1,29.3,35.9l.859-5.234H28.672l.2-1.117h1.492l.359-2.047ZM37.2,38.156a3.048,3.048,0,0,1-2.469-1.164,4.006,4.006,0,0,1-.75-2.9l.039-.336a5.624,5.624,0,0,1,.746-2.3,4.339,4.339,0,0,1,1.5-1.566,3.491,3.491,0,0,1,1.906-.5,2.688,2.688,0,0,1,2.047.867,3.566,3.566,0,0,1,.813,2.266,6.621,6.621,0,0,1-.031,1.016l-.086.648H35.383a2.856,2.856,0,0,0,.379,1.953,1.8,1.8,0,0,0,1.551.836,3.007,3.007,0,0,0,2.313-1.125l.813.688a3.718,3.718,0,0,1-1.371,1.2A3.886,3.886,0,0,1,37.2,38.156Zm.9-7.586a2.066,2.066,0,0,0-1.527.594A4.22,4.22,0,0,0,35.531,33l4.109.008.031-.125a2.313,2.313,0,0,0-.316-1.637A1.488,1.488,0,0,0,38.094,30.57Zm7.773,2.859a14.5,14.5,0,0,1-.992,3.605A10.841,10.841,0,0,1,43.152,39.9,7.163,7.163,0,0,1,40.93,41.68l-.219-.9q2.68-2.016,3.578-6.477a16.834,16.834,0,0,0,.344-3.461q-.039-3.352-1.625-4.8l.367-.875a5.179,5.179,0,0,1,1.48,1.621,7.645,7.645,0,0,1,.891,2.352A12.043,12.043,0,0,1,46,31.914a13.344,13.344,0,0,1-.117,1.43Z" transform="translate(2524 -7883)" fill="#12263f"/>
    <path id="Trazado_237732" data-name="Trazado 237732" d="M9.625-7.7a8.308,8.308,0,0,1-1.281,4.2A7.733,7.733,0,0,1,5.055-.687a11.2,11.2,0,0,1-4.836,1A8.934,8.934,0,0,1-6.844-2.609q-2.578-2.922-2.578-8.25v-1.125a13.771,13.771,0,0,1,1.164-5.852,8.82,8.82,0,0,1,3.352-3.875A9.351,9.351,0,0,1,.156-23.078,9.806,9.806,0,0,1,6.813-20.9a8.612,8.612,0,0,1,2.859,6.008H4.2a4.075,4.075,0,0,0-1.047-2.984,4.306,4.306,0,0,0-3-.906,3.276,3.276,0,0,0-3,1.531,9.841,9.841,0,0,0-1,4.891v1.609a10.89,10.89,0,0,0,.914,5.2A3.345,3.345,0,0,0,.219-3.984a4.211,4.211,0,0,0,2.891-.891A3.78,3.78,0,0,0,4.172-7.7Z" transform="translate(2145 -7781)" fill="#12263f"/>
    <path id="Trazado_237727" data-name="Trazado 237727" d="M-8.625,0V-22.75H-1.3a10.78,10.78,0,0,1,5.422,1.367,9.61,9.61,0,0,1,3.758,3.859A11.652,11.652,0,0,1,9.25-11.937v1.047a11.72,11.72,0,0,1-1.32,5.6A9.652,9.652,0,0,1,4.211-1.414,10.543,10.543,0,0,1-1.141,0Zm5.484-18.516v14.3h1.906A4.266,4.266,0,0,0,2.391-5.9a8.231,8.231,0,0,0,1.266-4.992v-.984a8.164,8.164,0,0,0-1.266-4.969A4.341,4.341,0,0,0-1.3-18.516Z" transform="translate(2283 -7781)" fill="#12263f"/>
    <path id="Trazado_237717" data-name="Trazado 237717" d="M6.875-9.656H-1.75v5.438H8.438V0H-7.234V-22.75h15.7v4.234H-1.75v4.8H6.875Z" transform="translate(2416 -7781)" fill="#12263f"/>
    <path id="Trazado_237718" data-name="Trazado 237718" d="M7.3-9.062H-1.547V0H-7.031V-22.75H8.188v4.234H-1.547v5.234H7.3Z" transform="translate(2522 -7781)" fill="#12263f"/>
    <path id="Trazado_237719" data-name="Trazado 237719" d="M9.438-2.812a8.818,8.818,0,0,1-3.7,2.266A15.972,15.972,0,0,1,.391.313,9.528,9.528,0,0,1-6.75-2.422a11.069,11.069,0,0,1-2.859-7.609L-9.625-12a13.577,13.577,0,0,1,1.188-5.867,8.818,8.818,0,0,1,3.4-3.859A9.613,9.613,0,0,1,.078-23.078a10.078,10.078,0,0,1,6.6,1.945,8.243,8.243,0,0,1,2.742,5.8H4.141a4.313,4.313,0,0,0-1.219-2.719,3.932,3.932,0,0,0-2.656-.812,3.578,3.578,0,0,0-3.187,1.75,9.344,9.344,0,0,0-1.141,5v1.375A9.147,9.147,0,0,0-2.9-5.617,4.117,4.117,0,0,0,.766-3.906a4.608,4.608,0,0,0,3.188-.953V-8.391H.141v-3.766h9.3Z" transform="translate(2654 -7781)" fill="#12263f"/>
    <path id="Trazado_237720" data-name="Trazado 237720" d="M9.492,0H4.039V-9.5H-4.039V0H-9.523V-22.75h5.484v9.031H4.039V-22.75H9.492Z" transform="translate(2785 -7781)" fill="#12263f"/>
    <path id="Trazado_237721" data-name="Trazado 237721" d="M2.734,0H-2.734V-22.75H2.734Z" transform="translate(2919 -7781)" fill="#12263f"/>
  </g>
</svg>
